<svg width="26" height="26" viewBox="0 0 26 26" fill="none" xmlns="http://www.w3.org/2000/svg">
<path fill-rule="evenodd" clip-rule="evenodd" d="M9.70611 0.292463C9.89339 0.47997 9.99858 0.734144 9.99858 0.999154C9.99858 1.26416 9.89339 1.51834 9.70611 1.70584L3.41257 7.99939H16.9997C19.3867 7.99939 21.676 8.94763 23.3639 10.6355C25.0518 12.3234 26 14.6127 26 16.9997C26 19.3867 25.0518 21.676 23.3639 23.3639C21.676 25.0518 19.3867 26 16.9997 26H12.9996C12.7343 26 12.48 25.8946 12.2924 25.7071C12.1049 25.5196 11.9995 25.2652 11.9995 25C11.9995 24.7347 12.1049 24.4804 12.2924 24.2928C12.48 24.1053 12.7343 23.9999 12.9996 23.9999H16.9997C17.919 23.9999 18.8293 23.8189 19.6786 23.4671C20.5279 23.1153 21.2996 22.5996 21.9496 21.9496C22.5996 21.2996 23.1153 20.5279 23.4671 19.6786C23.8189 18.8293 23.9999 17.919 23.9999 16.9997C23.9999 16.0804 23.8189 15.1701 23.4671 14.3208C23.1153 13.4715 22.5996 12.6998 21.9496 12.0498C21.2996 11.3997 20.5279 10.8841 19.6786 10.5323C18.8293 10.1805 17.919 9.99946 16.9997 9.99946H3.41257L9.70611 16.293C9.80437 16.3846 9.88317 16.495 9.93783 16.6176C9.99249 16.7403 10.0219 16.8727 10.0242 17.007C10.0266 17.1413 10.0019 17.2747 9.95162 17.3992C9.90132 17.5237 9.82646 17.6368 9.7315 17.7318C9.63654 17.8267 9.52342 17.9016 9.3989 17.9519C9.27438 18.0022 9.141 18.0269 9.00673 18.0245C8.87245 18.0222 8.74003 17.9928 8.61736 17.9381C8.49469 17.8834 8.38429 17.8046 8.29273 17.7064L0.292463 9.70611C0.10519 9.51861 0 9.26443 0 8.99942C0 8.73442 0.10519 8.48024 0.292463 8.29273L8.29273 0.292463C8.48024 0.10519 8.73442 0 8.99942 0C9.26443 0 9.51861 0.10519 9.70611 0.292463Z" fill="white"/>
</svg>
