<svg width="26" height="25" viewBox="0 0 26 25" fill="none" xmlns="http://www.w3.org/2000/svg">
<path d="M26 18.7499C26 19.298 25.8397 19.806 25.5828 20.2531L17.3736 11.4213L25.4938 4.59008C25.8097 5.07209 26 5.63829 26 6.25014V18.7499ZM13 13.0249L24.2991 3.51875C23.8354 3.27468 23.3133 3.125 22.7501 3.125H3.24998C2.68605 3.125 2.16376 3.27468 1.70196 3.51875L13 13.0249ZM16.1501 12.4498L13.5347 14.6516C13.3817 14.7798 13.1912 14.8438 13 14.8438C12.8087 14.8438 12.6182 14.7798 12.4653 14.6516L9.84923 12.4497L1.53612 21.3943C2.03441 21.6949 2.61837 21.875 3.24993 21.875H22.7501C23.3815 21.875 23.9658 21.6949 24.4639 21.3943L16.1501 12.4498ZM0.50627 4.59003C0.190441 5.07204 0 5.63824 0 6.25014V18.75C0 19.298 0.159576 19.8061 0.417373 20.2531L8.62567 11.4198L0.50627 4.59003Z" fill="white"/>
</svg>
