<svg width="24" height="34" viewBox="0 0 24 34" fill="none" xmlns="http://www.w3.org/2000/svg">
<path d="M1.26911 27.4164C0.458075 28.0594 -0.00417386 28.8956 2.84044e-05 29.7109C0.00423067 30.7488 0.76484 31.7742 1.9919 32.3793C3.05507 32.9088 4.26953 33.0769 5.42515 33.2113C7.59351 33.4593 9.71566 33.5811 11.7832 33.5811C13.9599 33.5811 16.0695 33.4467 18.095 33.1735C19.5994 32.9718 21.1584 32.6693 22.3855 31.8246C23.0284 31.3834 23.5243 30.7782 23.7932 30.1143C24.0874 29.3831 24.0664 28.6351 23.7386 28.0131C23.1377 26.8785 21.7005 26.3449 20.5197 26.0045C19.2506 25.6431 17.9353 25.3615 16.599 25.164C17.8933 23.3949 19.1203 21.3904 19.9608 20.0204C20.1373 19.7305 20.3054 19.4615 20.4482 19.2304C21.8728 16.9402 22.6418 14.5155 22.7385 12.0319C22.8267 9.7123 22.3014 7.38845 21.2088 5.32094C20.1583 3.32907 18.3051 1.72801 15.9854 0.811914C13.6742 -0.0999767 11.1066 -0.247056 8.74914 0.387485C6.75726 0.925375 4.97971 1.98855 3.61818 3.45934C2.23983 4.94694 1.33635 6.80014 1.00437 8.81722C0.399244 12.4942 1.433 16.7091 3.90393 20.676L3.95436 20.7558C4.98391 22.4073 5.96724 23.9874 6.94216 25.3363C5.82016 25.5548 4.73598 25.8448 3.70642 26.1978C2.9164 26.4667 2.00871 26.8281 1.26911 27.4164ZM4.48384 20.4197L4.43341 20.3398C2.04233 16.499 1.04639 12.4438 1.6221 8.91387C2.25244 5.07301 5.04274 2.03477 8.90882 0.992611C9.81651 0.74888 10.7536 0.627014 11.6991 0.627014C13.0733 0.627014 14.4558 0.883352 15.7501 1.39603C17.9311 2.25329 19.6708 3.7535 20.6499 5.6109C22.8393 9.77113 22.5704 14.6121 19.9103 18.8942C19.7633 19.1296 19.5994 19.4027 19.4229 19.6885C18.5026 21.1929 17.1074 23.4705 15.6829 25.3321C14.5525 26.8113 12.9724 28.5763 11.8756 28.5763C10.8587 28.5763 9.70725 27.782 8.36253 26.1473C7.10605 24.6219 5.83277 22.5796 4.48384 20.4197ZM7.35819 25.8952C7.53048 26.1221 7.70277 26.3406 7.87506 26.5466C9.37107 28.3619 10.6444 29.2066 11.8756 29.2066C12.9766 29.2066 14.3802 28.072 16.1661 25.7397C17.5907 25.933 18.9942 26.223 20.3432 26.6096C21.4063 26.9122 22.688 27.3828 23.1797 28.3073C23.7344 29.3579 23.0032 30.6354 22.0283 31.3035C20.9105 32.0725 19.4355 32.3541 18.0109 32.5474C14.107 33.0727 9.89635 33.0853 5.49659 32.5852C4.3998 32.4591 3.24838 32.2995 2.27345 31.8162C1.27752 31.3203 0.63457 30.4967 0.630368 29.7109C0.630368 29.0889 1.00437 28.4334 1.65992 27.9123C2.32388 27.3828 3.16853 27.0508 3.90393 26.7945C5.00072 26.4121 6.16054 26.1137 7.35819 25.8952ZM11.7622 18.8858C13.0018 18.8858 14.2205 18.6211 15.2921 18.1084C16.7334 17.4192 17.9983 16.2342 18.8514 14.7802C19.7002 13.3262 20.112 11.6411 20.0028 10.0485C19.8599 7.93475 18.8472 5.90926 17.2965 4.62757C15.0399 2.76597 12.0521 2.0852 9.30383 2.80799C8.10199 3.12316 7.03041 3.68626 6.12272 4.47629C5.1562 5.31674 4.42081 6.37571 3.94175 7.62798C3.36604 9.11978 3.26098 10.8469 3.64759 12.49C4.03 14.1331 4.88726 15.6333 6.06389 16.7217C7.24052 17.8059 8.80377 18.5455 10.4721 18.7934C10.9007 18.8564 11.3335 18.8858 11.7622 18.8858ZM4.25692 12.3429C3.90393 10.8217 3.99638 9.22484 4.52586 7.8507C5.39153 5.59829 7.14387 4.02244 9.45932 3.41311C10.1317 3.23662 10.8166 3.15257 11.5016 3.15257C13.4263 3.15257 15.3425 3.83334 16.8931 5.11083C18.3135 6.28326 19.2422 8.14486 19.3725 10.0905C19.4733 11.5613 19.0909 13.1161 18.3051 14.4651C17.5193 15.814 16.351 16.9066 15.0189 17.5411C13.6868 18.1757 12.1067 18.3984 10.5603 18.1672C9.01808 17.9361 7.5683 17.2554 6.48412 16.2552C5.40414 15.2509 4.61411 13.8641 4.25692 12.3429ZM15.9686 9.59884C15.851 9.35511 15.6156 9.20383 15.3425 9.20383C15.3383 9.20383 15.3383 9.20383 15.3341 9.20383C15.0063 9.20803 14.7248 9.21644 14.4768 9.22064C13.8675 9.23324 13.4052 9.24585 12.6951 9.21644C12.7539 8.80041 12.9262 7.78346 13.3926 5.27892C13.4557 4.95114 13.2834 4.63597 12.9724 4.5099C12.6656 4.38384 12.3211 4.48889 12.1362 4.76624C11.0604 6.37571 9.08952 9.30048 8.00954 10.8133C7.85826 11.0276 7.83724 11.305 7.95911 11.5361C8.08098 11.7672 8.3121 11.9059 8.57264 11.9059C8.57684 11.9059 8.57684 11.9059 8.58105 11.9059C8.85839 11.9017 9.11473 11.8933 9.36267 11.8891C9.7997 11.8765 10.2199 11.8639 10.7578 11.8723C10.4763 12.5404 10.1779 13.322 9.86694 14.1415C9.63581 14.755 9.39208 15.3854 9.13574 16.0409C9.00968 16.3561 9.12314 16.7049 9.41309 16.8814C9.53076 16.9528 9.65682 16.9906 9.78289 16.9906C9.97199 16.9906 10.1527 16.9108 10.2914 16.7637C12.2916 14.5743 13.6826 12.948 15.8678 10.3426C16.0485 10.1283 16.0863 9.84678 15.9686 9.59884ZM15.3929 9.93502C13.2119 12.532 11.8252 14.1499 9.83332 16.3351C9.82071 16.3477 9.7997 16.3729 9.75348 16.3477C9.71145 16.3225 9.72406 16.2888 9.72826 16.272C9.9888 15.6123 10.2325 14.9777 10.4637 14.3642C10.8419 13.3683 11.1991 12.4312 11.5268 11.7C11.5689 11.6033 11.5604 11.4941 11.5058 11.4058C11.4512 11.3176 11.3545 11.2629 11.2495 11.2587C10.9343 11.2461 10.6612 11.2419 10.409 11.2419C10.0182 11.2419 9.67783 11.2503 9.35006 11.2629C9.10633 11.2713 8.84999 11.2755 8.57684 11.2797C8.55163 11.2797 8.53482 11.2671 8.52221 11.2461C8.50961 11.2251 8.51381 11.2041 8.52641 11.1831C9.6106 9.66187 11.5815 6.7329 12.6614 5.11923C12.6698 5.10662 12.6909 5.07721 12.7371 5.09822C12.7833 5.11923 12.7791 5.14865 12.7749 5.16546C12.5606 6.30847 12.3925 7.24978 12.2664 7.95996C12.1866 8.4138 12.1278 8.771 12.0899 9.02313C12.0185 9.48538 12.0101 9.58624 12.1067 9.7123C12.1614 9.78374 12.2496 9.82997 12.3379 9.83417C13.2708 9.88459 13.7834 9.87199 14.4936 9.85518C14.7374 9.85098 15.0189 9.84257 15.3425 9.83837C15.3509 9.83837 15.3803 9.83837 15.3971 9.87199C15.4097 9.893 15.4097 9.91401 15.3929 9.93502Z" fill="black"/>
</svg>
