<svg width="30" height="21" viewBox="0 0 30 21" fill="none" xmlns="http://www.w3.org/2000/svg">
<path d="M21.6111 8.03019C21.615 8.18961 21.4867 8.3257 21.3234 8.3257L19.5776 8.35292H19.5737C19.4143 8.35292 19.2859 8.22461 19.2821 8.06519C19.2782 7.90577 19.4065 7.77357 19.5698 7.76968L21.3156 7.74246C21.475 7.73857 21.6072 7.86689 21.6111 8.03019ZM9.91133 7.91355L8.16549 7.94076C8.00607 7.94465 7.87776 8.07685 7.87776 8.23627C7.88165 8.39569 8.00996 8.524 8.16938 8.524H8.17327L9.9191 8.49679C10.0785 8.4929 10.2068 8.3607 10.2068 8.20128C10.2029 8.04186 10.0746 7.91355 9.91521 7.91355H9.91133ZM21.5373 5.93831C21.4828 5.87609 21.4012 5.8411 21.3156 5.8411C20.6235 5.84888 19.9275 5.85665 19.2276 5.86443C19.0682 5.86443 18.936 5.99663 18.9399 6.15994C18.9399 6.31936 19.0721 6.44767 19.2315 6.44767H19.2354C19.8342 6.43989 20.4291 6.436 21.0201 6.42823C21.0201 6.45545 21.024 6.48266 21.024 6.50988C21.0318 6.61875 21.0357 6.71985 21.024 6.81705C21.0046 6.97647 21.1212 7.12034 21.2806 7.13978C21.2923 7.13978 21.304 7.14367 21.3156 7.14367C21.4595 7.14367 21.5878 7.0348 21.6034 6.88704C21.6228 6.7354 21.6111 6.59931 21.6034 6.47489C21.5956 6.36601 21.5917 6.26492 21.6034 6.16771C21.6189 6.08217 21.5917 6.00052 21.5373 5.93831ZM10.2846 6.55265C10.444 6.55265 10.5762 6.42045 10.5723 6.25714C10.5723 6.09773 10.4401 5.96941 10.2807 5.96941H10.2768H10.2068C9.5225 5.97719 8.84205 5.98496 8.16549 5.99274C8.00607 5.99274 7.87776 6.12494 7.87776 6.28436V7.02702C7.87776 7.18644 8.00996 7.31864 8.16938 7.31864C8.3288 7.31864 8.461 7.18644 8.461 7.02702V6.57209C9.04424 6.56432 9.62748 6.56043 10.2146 6.55265H10.2846ZM21.3195 3.78809C19.8031 3.79587 18.2983 3.81142 17.0307 3.82309C16.8713 3.82309 16.7391 3.95529 16.743 4.1186C16.743 4.27802 16.8752 4.40633 17.0346 4.40633H17.0385C18.2283 4.39466 19.6242 4.383 21.0396 4.37133C21.0396 4.42577 21.0357 4.48409 21.0318 4.53853C21.024 4.70184 21.0123 4.86903 21.0318 5.05956C21.0473 5.2112 21.1718 5.32396 21.3234 5.32396C21.3312 5.32396 21.3428 5.32396 21.3506 5.32396C21.51 5.30841 21.6267 5.16454 21.6111 5.00512C21.5956 4.86126 21.6033 4.72128 21.6111 4.57352C21.6189 4.41022 21.6306 4.24302 21.6111 4.0525C21.5956 3.90085 21.4673 3.78809 21.3195 3.78809ZM12.2754 3.87364C10.7551 3.88919 9.40974 3.90085 8.16938 3.90863C8.00996 3.90863 7.88165 4.03694 7.87776 4.19636C7.87776 4.32079 7.87776 4.44132 7.87776 4.56575C7.87776 4.67462 7.87776 4.78738 7.87776 4.89625C7.87776 5.05567 8.00607 5.18787 8.16938 5.18787C8.3288 5.18787 8.461 5.05956 8.461 4.89625C8.461 4.78349 8.461 4.67073 8.461 4.56186C8.461 4.53853 8.461 4.51131 8.461 4.48798C9.6236 4.48021 10.8756 4.46854 12.2793 4.45688C12.4387 4.45688 12.5709 4.32467 12.567 4.16137C12.567 3.99806 12.4348 3.86975 12.2754 3.87364ZM7.87776 2.9249C7.89332 3.08432 8.03329 3.20485 8.1966 3.1893C8.35602 3.17375 8.47656 3.03377 8.461 2.87046C8.44934 2.73048 8.45323 2.58662 8.461 2.43109C8.46489 2.36499 8.46878 2.295 8.46878 2.2289C13.1191 2.20168 16.4903 2.20168 21.0318 2.20168C21.0318 2.27167 21.0279 2.34555 21.0279 2.41942C21.024 2.59828 21.0201 2.78103 21.0279 2.956C21.0357 3.11153 21.164 3.23207 21.3195 3.23207C21.3234 3.23207 21.3312 3.23207 21.3351 3.23207C21.4945 3.22429 21.6189 3.0882 21.6111 2.9249C21.6033 2.76937 21.6072 2.60606 21.6111 2.43109C21.615 2.25223 21.6189 2.06948 21.6111 1.89451C21.6033 1.73898 21.475 1.61844 21.3195 1.61844C16.533 1.61844 13.0725 1.61844 8.16938 1.64566C8.08773 1.64566 8.00996 1.68065 7.95553 1.74286C7.90109 1.80508 7.87387 1.88284 7.88165 1.96449C7.89332 2.10447 7.88943 2.24834 7.88165 2.40387C7.86999 2.57107 7.86221 2.74215 7.87776 2.9249ZM18.6522 10.2154C18.6522 10.3748 18.7844 10.507 18.9438 10.507C19.8147 10.5031 20.5885 10.4992 21.3156 10.4992C21.3973 10.4992 21.4711 10.4643 21.5295 10.4059C21.5878 10.3476 21.6111 10.2698 21.6072 10.1882C21.5995 10.0754 21.6033 9.93933 21.6072 9.80324C21.6111 9.65549 21.615 9.50385 21.6072 9.36776C21.5956 9.20834 21.4595 9.08392 21.3001 9.09558C21.1406 9.10725 21.0162 9.24333 21.0279 9.40275C21.0357 9.51551 21.0318 9.6516 21.0279 9.78769C21.0279 9.83046 21.024 9.87323 21.024 9.916C20.3824 9.916 19.6981 9.91989 18.9438 9.92378C18.7805 9.92378 18.6522 10.056 18.6522 10.2154ZM7.87776 10.2971C7.87776 10.3748 7.90887 10.4487 7.9633 10.5031C8.01774 10.5576 8.09162 10.5887 8.16938 10.5887C8.90038 10.5887 9.66637 10.5848 10.4479 10.5809C10.6073 10.5809 10.7395 10.4487 10.7395 10.2893C10.7395 10.1299 10.6073 9.99766 10.4479 9.99766C10.4479 9.99766 10.4479 9.99766 10.444 9.99766C9.76746 10.0015 9.10257 10.0054 8.461 10.0054V9.55828C8.461 9.39887 8.3288 9.26666 8.16938 9.26666C8.00996 9.26666 7.87776 9.39887 7.87776 9.55828V10.2971ZM16.4086 12.3345C16.4086 12.4939 16.5408 12.6222 16.7002 12.6222H16.7041C18.4111 12.6028 19.8381 12.56 21.3351 12.4823C21.4167 12.4784 21.4906 12.4395 21.5411 12.3812C21.5917 12.3228 21.6189 12.2412 21.6072 12.1595C21.5956 12.0662 21.6033 11.9729 21.6072 11.8718C21.615 11.7552 21.6228 11.6268 21.6072 11.483C21.5878 11.3236 21.4439 11.2069 21.2845 11.2264C21.1251 11.2458 21.0084 11.3897 21.0279 11.5491C21.0396 11.6424 21.0318 11.7357 21.0279 11.8368C21.0279 11.8601 21.024 11.8874 21.024 11.9146C19.6359 11.9807 18.2905 12.0196 16.6964 12.039C16.533 12.039 16.4047 12.1712 16.4086 12.3345ZM7.87776 12.4512C7.88554 12.6067 8.01385 12.7272 8.16938 12.7272C8.17327 12.7272 8.17716 12.7272 8.17716 12.7272C9.58471 12.6845 10.9378 12.6611 12.5592 12.6495C12.7187 12.6495 12.8509 12.5173 12.847 12.3539C12.847 12.1945 12.7148 12.0662 12.5554 12.0662C12.5554 12.0662 12.5554 12.0662 12.5515 12.0662C11.0389 12.0779 9.75968 12.0973 8.45323 12.1362C8.45323 12.1012 8.45323 12.0623 8.45711 12.0273C8.461 11.8874 8.46489 11.7396 8.45711 11.5919C8.44934 11.4324 8.30936 11.308 8.14994 11.3158C7.99052 11.3236 7.8661 11.4596 7.87387 11.623C7.88165 11.7474 7.87776 11.8757 7.87387 12.0118C7.87387 12.1518 7.86999 12.2995 7.87776 12.4512ZM21.6072 13.6254C21.5839 13.466 21.4362 13.3571 21.2767 13.3805C21.1173 13.4038 21.0084 13.5515 21.0318 13.711C21.0434 13.7965 21.0357 13.9287 21.0279 14.0531C21.024 14.0959 21.024 14.1387 21.0201 14.1853C18.901 14.2164 16.8208 14.2475 14.7406 14.2786C12.6603 14.3097 10.5762 14.3409 8.45711 14.372C8.45711 14.3214 8.461 14.2709 8.461 14.2164C8.46489 14.0609 8.46878 13.9015 8.461 13.7382C8.45323 13.5788 8.31714 13.4543 8.15772 13.4621C7.9983 13.4699 7.87387 13.606 7.88165 13.7654C7.88943 13.9093 7.88554 14.0531 7.88165 14.2048C7.87776 14.3603 7.87387 14.5197 7.88165 14.683C7.88943 14.8386 8.01774 14.9591 8.17327 14.9591H8.17716C10.3974 14.928 12.5748 14.893 14.7522 14.8619C16.9297 14.8308 19.1071 14.7958 21.3273 14.7647C21.4128 14.7647 21.4906 14.7258 21.545 14.6636C21.5995 14.6014 21.6228 14.5158 21.6111 14.4342C21.5995 14.3486 21.6072 14.2164 21.615 14.092C21.6189 13.9287 21.6306 13.7693 21.6072 13.6254ZM0.482275 9.74103C0.0778951 9.19279 -0.00375837 8.52012 0.000129894 8.04963V7.9952C0.00401816 7.55971 0.0079062 6.90649 0.540599 6.37379C0.556152 6.35824 0.575593 6.34269 0.595035 6.33102C0.754454 6.23381 1.11217 6.21048 3.47235 6.21048C3.64733 6.21048 3.81452 6.21048 3.98172 6.21048C3.98561 5.74389 3.98949 5.29285 3.99727 4.83404C4.00505 4.30912 4.00893 3.76476 4.01282 3.18152C4.02449 1.77397 4.56885 1.0352 4.89157 0.716361C5.55647 0.0670201 6.80849 0.0475787 7.48116 0.0359139C10.4129 -0.0107453 13.3952 0.00480802 16.2803 0.0203611C18.7649 0.0320259 21.3195 0.047579 23.8547 0.0203611C23.8547 0.0203611 23.8547 0.0203611 23.8585 0.0203611C23.8585 0.0203611 23.8585 0.0203611 23.8624 0.0203611C24.2668 0.0164728 24.6673 0.0125842 25.0717 0.00480767C26.0982 -0.0107454 27.5057 -0.0340746 28.5361 0.739691C29.9087 1.77397 30.0448 3.65589 29.9903 5.53393C29.9554 6.64986 29.9631 7.5636 29.9709 8.45013C29.9787 9.34054 29.9865 10.2582 29.9515 11.3858C29.9048 12.9877 29.7415 14.7802 28.4506 15.7912C27.5019 16.53 26.1915 16.5261 25.0328 16.5183C24.955 16.5183 24.8773 16.5183 24.7995 16.5183C25.1145 16.6855 25.4255 16.841 25.7366 16.9927C26.4131 17.3232 27.0547 17.6381 27.5368 18.0308C27.6068 18.0891 27.6457 18.1708 27.6418 18.2602C27.6341 18.6374 27.6418 18.8862 27.6457 19.1312C27.6496 19.3801 27.6574 19.6367 27.6496 20.0216C27.6457 20.1733 27.5252 20.3016 27.3735 20.3093C22.3888 20.5776 18.6871 20.5543 15.1099 20.531C12.186 20.5115 9.4214 20.496 6.07749 20.6282C6.07361 20.6282 6.06972 20.6282 6.06583 20.6282C5.99195 20.6282 5.92196 20.601 5.86753 20.5504C5.8092 20.496 5.7781 20.4221 5.77421 20.3443C5.76643 20.0333 5.76254 19.765 5.75477 19.4967C5.74699 19.2284 5.7431 18.9562 5.73533 18.6452C5.73144 18.5441 5.78199 18.4508 5.86753 18.3963C6.53631 17.9531 7.37229 17.537 8.17716 17.1326C8.56599 16.9382 8.96648 16.7399 9.34364 16.5377C8.74485 16.5144 8.13828 16.4872 7.52004 16.4522C6.99513 16.425 6.40022 16.39 5.86753 16.1256C5.016 15.7017 4.49886 15.0446 4.24223 14.0609C4.0206 13.2094 4.01282 12.214 4.00505 11.0669C4.00505 10.8259 4.00116 10.577 3.99727 10.3282C3.99338 10.1804 3.99338 10.0365 3.99338 9.89656C3.69399 9.89267 3.3907 9.89268 3.07186 9.89268C2.27866 9.88879 1.46212 9.8849 0.707795 9.86157C0.618364 9.85379 0.536711 9.81102 0.482275 9.74103ZM25.4955 15.935C26.4598 15.9312 27.4085 15.8612 28.0851 15.3285C29.1816 14.4731 29.3177 12.8361 29.3643 11.3663C29.3993 10.2504 29.3916 9.33665 29.3838 8.45013C29.376 7.55971 29.3682 6.64208 29.4032 5.51448C29.4538 3.79198 29.3449 2.08114 28.1823 1.20628C27.4513 0.654149 26.4948 0.576384 25.41 0.58416C25.2661 5.67779 25.2972 10.8414 25.4955 15.935ZM24.0374 15.935C24.224 15.935 24.4107 15.9312 24.5973 15.9312C24.7023 15.9312 24.8073 15.9312 24.9123 15.9312C24.714 10.8414 24.6829 5.68168 24.8228 0.588048C24.5973 0.591936 24.3718 0.595825 24.1463 0.595825L24.1424 0.902998C24.1074 5.91498 24.0724 10.927 24.0374 15.935ZM23.6564 16.5222C22.241 16.5338 20.9074 16.5533 19.6087 16.5688C17.7695 16.5961 16.0392 16.6194 14.3206 16.6194C13.0375 16.6194 11.7621 16.6077 10.4557 16.5688C9.84523 16.9421 9.1259 17.3037 8.43379 17.6498C7.6989 18.0192 6.9368 18.3963 6.31857 18.789C6.32245 19.034 6.33023 19.2556 6.33412 19.4773C6.33801 19.6561 6.3419 19.8389 6.34578 20.0294C9.56916 19.905 12.2637 19.9244 15.1099 19.9438C18.6133 19.9672 22.2332 19.9905 27.0625 19.7378C27.0625 19.5045 27.0586 19.3178 27.0547 19.139C27.0508 18.9251 27.0469 18.7035 27.0508 18.3924C26.6309 18.0775 26.0671 17.8014 25.4722 17.5098C24.9045 17.2337 24.2629 16.9188 23.6564 16.5222ZM4.57273 9.60494C4.57273 9.60883 4.57273 9.60883 4.57273 9.60494C4.57662 9.83435 4.57662 10.0676 4.58051 10.3126C4.5844 10.5653 4.5844 10.8181 4.58829 11.0592C4.59995 13.256 4.61162 14.8424 6.12415 15.6007C6.54797 15.8106 7.05734 15.8417 7.54726 15.8651C11.7505 16.0945 15.386 16.0439 19.6009 15.9856C20.8374 15.97 22.1088 15.9506 23.4542 15.9389C23.4892 10.927 23.5242 5.91109 23.5591 0.899109L23.563 0.603601C21.1212 0.626931 18.6677 0.611378 16.2764 0.599713C13.3952 0.58416 10.4168 0.568607 7.49282 0.615266C6.90181 0.623043 5.80143 0.642484 5.30373 1.12852C4.86435 1.56012 4.60773 2.30666 4.59995 3.18152C4.59606 3.76476 4.58829 4.30912 4.5844 4.83404C4.57662 5.38617 4.57273 5.92664 4.56885 6.49433V6.49822V6.5021C4.55718 7.41585 4.55718 8.39958 4.57273 9.60494ZM0.58337 8.05352C0.579482 8.39958 0.630029 8.88173 0.87499 9.27833C1.57877 9.29777 2.33698 9.30166 3.07186 9.30555C3.37515 9.30555 3.68232 9.30944 3.98561 9.30944C3.97783 8.35681 3.97783 7.54805 3.98172 6.79373C3.81841 6.79373 3.64733 6.79373 3.47624 6.79373C2.57028 6.79373 1.22882 6.78984 0.906096 6.84038C0.591147 7.19422 0.587258 7.62193 0.587258 7.99909L0.58337 8.05352ZM16.1948 4.50742C15.9226 5.9733 15.8059 6.65375 15.7554 6.9687C16.1637 6.98425 16.4475 6.97647 16.813 6.9687C16.9724 6.96481 17.1552 6.96092 17.369 6.95703C17.579 6.95314 17.7695 7.07368 17.8628 7.26421C17.9523 7.45473 17.925 7.67636 17.789 7.83967C16.3659 9.53495 15.4599 10.5926 14.1573 12.0157C14.0523 12.1323 13.9085 12.1906 13.7646 12.1906C13.6674 12.1906 13.5663 12.1634 13.4769 12.109C13.2552 11.969 13.1658 11.7007 13.263 11.4558C13.4302 11.0319 13.5896 10.6198 13.7374 10.2232C13.9201 9.73715 14.099 9.27055 14.2662 8.86617C13.9785 8.86228 13.7374 8.87006 13.4885 8.87784C13.3252 8.88173 13.1619 8.88561 12.9792 8.8895C12.777 8.8895 12.5903 8.78063 12.497 8.60177C12.4037 8.42291 12.4193 8.20905 12.5359 8.04186C13.2358 7.05813 14.5189 5.15676 15.2188 4.11082C15.3627 3.89696 15.6271 3.81531 15.8682 3.91252C16.1092 4.00972 16.2414 4.25469 16.1948 4.50742ZM15.4171 7.53638C15.3316 7.5325 15.2538 7.48973 15.2033 7.42362C15.1138 7.31087 15.1294 7.20977 15.176 6.91037C15.1994 6.74707 15.2383 6.51377 15.2927 6.21826C15.3666 5.80222 15.4638 5.26564 15.5804 4.62407C14.8766 5.67002 13.7413 7.35752 13.0686 8.30626C13.2125 8.30237 13.3447 8.29849 13.4769 8.2946C13.6907 8.28682 13.9124 8.28293 14.169 8.28293C14.3362 8.28293 14.515 8.28682 14.7211 8.29071C14.8183 8.2946 14.9078 8.34514 14.9583 8.4268C15.0088 8.50845 15.0166 8.61343 14.9777 8.69898C14.7639 9.17335 14.5345 9.7838 14.2895 10.4293C14.1651 10.7559 14.0368 11.0903 13.9046 11.4363C15.0905 10.1299 15.9654 9.11113 17.2835 7.54027C17.1163 7.54416 16.9646 7.54805 16.8324 7.54805C16.362 7.5636 16.0276 7.57138 15.4171 7.53638Z" fill="black"/>
</svg>
