<svg width="29" height="26" viewBox="0 0 29 26" fill="none" xmlns="http://www.w3.org/2000/svg">
<path d="M9.63685 21.0258C9.22854 20.6887 8.68912 20.5651 8.19091 20.6962C7.73391 20.8161 7.37055 21.142 7.20199 21.584C6.98472 22.1496 7.14205 22.8351 7.59156 23.2472C7.87251 23.5094 8.2546 23.6442 8.63668 23.6442C8.85769 23.6442 9.0787 23.5993 9.28098 23.5019C9.82789 23.2397 10.1838 22.6328 10.1425 22.026C10.1126 21.6364 9.92903 21.2693 9.63685 21.0258ZM9.03375 22.9999C8.69287 23.161 8.24336 23.0936 7.96616 22.8389C7.68896 22.5841 7.58407 22.1421 7.72267 21.79C7.82756 21.5128 8.04482 21.318 8.32951 21.2431C8.41567 21.2206 8.50183 21.2094 8.58798 21.2094C8.83147 21.2094 9.0787 21.2955 9.27724 21.4604C9.44955 21.6027 9.56193 21.8312 9.57691 22.0709C9.60313 22.4455 9.37463 22.8351 9.03375 22.9999ZM21.2343 20.625C20.6874 20.2766 20.0543 20.2841 19.5374 20.6512C19.0991 20.9621 18.8331 21.5165 18.8631 22.0635C18.8856 22.513 19.0916 22.9363 19.4287 23.2247C19.7172 23.4757 20.0993 23.6143 20.4776 23.6143C20.5413 23.6143 20.605 23.6105 20.6686 23.603C21.3242 23.5206 21.8861 22.9887 22.0022 22.3369C22.1258 21.6851 21.8149 20.9959 21.2343 20.625ZM21.4515 22.2358C21.3766 22.6441 21.0095 22.9924 20.5975 23.0449C20.3165 23.0823 20.0131 22.9887 19.7958 22.7977C19.5786 22.6104 19.44 22.3219 19.425 22.0297C19.4063 21.6701 19.5786 21.3068 19.8633 21.1045C20.3315 20.7748 20.7698 20.9884 20.9346 21.0933C21.2568 21.303 21.5414 21.7376 21.4515 22.2358ZM14.9261 15.0698C14.9186 14.9162 15.0385 14.7813 15.1921 14.7739L16.2072 14.7252C16.3608 14.7177 16.4957 14.8375 16.5032 14.9911C16.5106 15.1447 16.3908 15.2796 16.2372 15.287L15.222 15.3357C15.2183 15.3357 15.2108 15.3357 15.2071 15.3357C15.0572 15.3395 14.9336 15.2196 14.9261 15.0698ZM8.39694 15.2046C8.3857 15.0511 8.50183 14.9162 8.65916 14.905L9.83913 14.8225C9.99271 14.8113 10.1276 14.9274 10.1388 15.0848C10.15 15.2383 10.0339 15.3732 9.87659 15.3844L8.69662 15.4669C8.68912 15.4669 8.68538 15.4669 8.67789 15.4669C8.52805 15.4669 8.40443 15.3507 8.39694 15.2046ZM0.0734614 21.2618C0.0921911 21.4341 0.118413 21.6139 0.144634 21.7937C0.215807 22.2433 0.601639 22.5729 1.0549 22.5729C1.06239 22.5729 1.06988 22.5729 1.07737 22.5729C2.30604 22.5429 3.58341 22.513 4.97315 22.4905C5.04432 23.0037 5.23162 23.5094 5.53879 23.9477C6.19433 24.8916 7.36306 25.4835 8.55427 25.4835C8.61795 25.4835 8.67789 25.4835 8.74157 25.4797C9.94776 25.4161 11.0715 24.7643 11.6746 23.7716C11.9294 23.3558 12.0829 22.8838 12.1354 22.4081C13.0007 22.4006 13.8698 22.3931 14.7351 22.3856C15.4056 22.3819 16.0799 22.3744 16.7504 22.3706C16.7766 22.5991 16.8253 22.8314 16.8965 23.0599C17.14 23.8428 17.6232 24.5245 18.26 24.974C18.8931 25.4236 19.6722 25.6446 20.4589 25.6446C21.2642 25.6446 22.0734 25.4086 22.7401 24.9403C23.5942 24.3372 24.1224 23.3371 24.1973 22.2845C25.3473 22.2657 27.0667 22.2245 28.0332 22.2021C28.5164 22.1908 28.9097 21.82 28.9472 21.3367C29.0483 20.0856 29.0034 18.8794 28.8198 17.8493C28.7936 17.7144 28.7674 17.5833 28.7411 17.4559C28.7411 17.4485 28.7374 17.441 28.7374 17.4297C28.4977 16.3771 28.1006 15.538 27.5574 14.9274C26.8794 14.167 26.2838 13.6238 25.4185 13.2567C24.5569 12.8971 23.4556 12.7211 21.8636 12.7061C21.9011 11.6123 21.9011 10.3836 21.6988 9.29729C21.489 8.15103 20.7585 6.62269 19.7696 5.9147C19.6423 5.8248 19.4662 5.85477 19.3763 5.97838C19.2864 6.10575 19.3164 6.28181 19.44 6.37171C20.1929 6.91112 20.9234 8.21097 21.1444 9.39843C21.3354 10.4398 21.3354 11.6385 21.298 12.7061C19.3501 12.7361 16.8216 12.766 14.3755 12.796C11.8132 12.826 9.16486 12.8597 7.187 12.8896C7.07837 12.8896 6.96974 12.8934 6.86485 12.8971C6.79742 11.9457 6.80866 11.0579 6.89482 10.1813C7.00345 9.08752 7.32186 8.181 7.84629 7.488C8.27332 6.92236 8.86518 6.45412 9.61063 6.102C9.74923 6.03457 9.80916 5.86601 9.74548 5.72741C9.67805 5.58881 9.50949 5.52887 9.37088 5.59255C8.54303 5.98588 7.88 6.51031 7.40052 7.15087C6.81241 7.93002 6.45654 8.93393 6.33667 10.1289C6.24677 11.0317 6.23928 11.9532 6.30671 12.9309C3.90181 13.1406 2.23112 14.1595 0.964995 16.1673C0.133396 17.4897 -0.158787 19.1491 0.0809534 21.2319C0.0697156 21.2393 0.0697154 21.2506 0.0734614 21.2618ZM11.1952 23.4757C10.6857 24.311 9.73424 24.8617 8.7116 24.9141C7.64775 24.9703 6.58391 24.4646 5.99954 23.6255C5.40393 22.7677 5.344 21.5615 5.86094 20.6962C6.31794 19.9283 7.32935 19.445 8.50183 19.4338C8.51681 19.4338 8.52805 19.4338 8.54303 19.4338C9.723 19.4338 10.7494 19.9058 11.2214 20.6737C11.7271 21.4941 11.7158 22.6179 11.1952 23.4757ZM22.4142 24.4758C21.2905 25.27 19.6797 25.2812 18.5859 24.5096C17.4771 23.7266 16.9939 22.1459 17.4808 20.9172C17.8105 20.0856 18.7657 19.1529 20.3914 19.1529C20.4739 19.1529 20.56 19.1566 20.6462 19.1603C21.3167 19.1978 21.961 19.4076 22.4629 19.7485C23.0061 20.1156 23.377 20.6325 23.538 21.2393C23.6055 21.4903 23.6392 21.745 23.6392 21.9998C23.6392 22.0035 23.6392 22.0073 23.6392 22.0073C23.6392 22.011 23.6392 22.011 23.6392 22.0148C23.6429 22.9812 23.1897 23.9289 22.4142 24.4758ZM26.9019 15.0473C26.9768 15.126 27.0517 15.2084 27.1266 15.2945C27.5986 15.8227 27.9058 16.5082 28.1043 17.2387C28.0631 17.2387 28.0219 17.2387 27.9807 17.2387C27.4675 17.2312 27.0105 17.0851 26.7034 16.8229C26.3662 16.5382 26.2014 16.0849 26.3063 15.7178C26.3812 15.4556 26.5985 15.2121 26.9019 15.0473ZM1.42949 16.4633C2.08129 15.4294 2.84171 14.6877 3.75197 14.2045C4.68846 13.7063 5.8085 13.459 7.187 13.4478C9.1686 13.4178 11.817 13.3841 14.3755 13.3541C16.9377 13.3242 19.5823 13.2905 21.5639 13.2605C23.2309 13.2605 24.3509 13.4178 25.19 13.7699C25.6994 13.9835 26.0965 14.2644 26.4936 14.6353C26.1302 14.8675 25.8718 15.1971 25.7669 15.568C25.602 16.1486 25.8343 16.8266 26.3437 17.2537C26.8644 17.6957 27.52 17.7931 27.9732 17.8006C27.992 17.8006 28.0107 17.8006 28.0332 17.8006C28.1006 17.8006 28.168 17.7968 28.2354 17.7968C28.5014 19.1454 28.4452 20.5389 28.3853 21.2843C28.3703 21.4791 28.2092 21.6289 28.0182 21.6327C27.0517 21.6551 25.3398 21.6926 24.1936 21.7151C24.1748 21.5053 24.1411 21.2993 24.0849 21.0933C23.7066 19.6735 22.3693 18.6959 20.6799 18.5985C19.9007 18.5535 19.1216 18.7108 18.481 19.048C17.7655 19.4226 17.2374 19.9957 16.9564 20.7112C16.8216 21.0558 16.7466 21.4266 16.7317 21.805C16.0649 21.8125 15.3981 21.8162 14.7351 21.82C13.8735 21.8275 13.0119 21.8349 12.1541 21.8424C12.1242 21.3218 11.9743 20.8161 11.7046 20.3778C11.124 19.4375 9.89532 18.8607 8.50183 18.8719C7.13456 18.8831 5.9396 19.4713 5.38146 20.4077C5.10801 20.8685 4.96566 21.3929 4.95068 21.9286C3.56468 21.9511 2.2948 21.9773 1.06988 22.011C0.890076 22.0148 0.732747 21.8836 0.706525 21.7076C0.695287 21.6327 0.68405 21.5577 0.672812 21.4828C0.729001 21.4791 0.78519 21.4716 0.837633 21.4604C1.30588 21.3779 1.69545 21.112 1.879 20.7561C2.03633 20.4527 2.03259 20.1118 2.03259 19.8346C2.03259 19.5125 2.02884 19.1903 2.02884 18.8682C2.02884 18.4524 2.0251 17.883 1.68422 17.4522C1.54187 17.2724 1.35083 17.1301 1.11858 17.0401C1.20848 16.8379 1.31337 16.6468 1.42949 16.4633ZM0.90506 17.5571C1.02493 17.6058 1.1448 17.6807 1.23845 17.7968C1.44448 18.0553 1.45946 18.4336 1.46321 18.8682C1.46321 19.1903 1.46695 19.5125 1.46695 19.8309C1.46695 20.0669 1.46695 20.3104 1.3733 20.4939C1.26842 20.6962 1.02868 20.8498 0.732747 20.9022C0.691541 20.9097 0.64659 20.9134 0.601639 20.9172C0.474277 19.6248 0.575418 18.5086 0.90506 17.5571ZM11.4686 7.07595C11.7608 7.0722 12.068 7.07595 12.3676 7.07969C12.7647 7.08344 13.173 7.08718 13.5701 7.07595C13.3004 7.71276 13.0194 8.4582 12.7235 9.23735C12.5025 9.82172 12.2702 10.4286 12.023 11.0504C11.9069 11.3426 12.0118 11.6647 12.2777 11.8295C12.3864 11.897 12.5025 11.9307 12.6186 11.9307C12.7909 11.9307 12.9632 11.8595 13.0906 11.7209C15.001 9.62693 16.3308 8.07611 18.4173 5.58881C18.5822 5.39402 18.6159 5.1318 18.5072 4.9033C18.3986 4.6748 18.1738 4.53245 17.9191 4.5362C17.6045 4.53994 17.3385 4.54744 17.1025 4.55118C16.5144 4.56617 16.0686 4.57366 15.3756 4.54369C15.4318 4.1616 15.5891 3.19515 16.0462 0.76029C16.1023 0.456869 15.9413 0.164686 15.6566 0.0485618C15.3719 -0.0675624 15.0535 0.0298316 14.8812 0.284556C13.851 1.82039 11.9706 4.61486 10.9404 6.06454C10.7981 6.26308 10.7831 6.5178 10.8955 6.73132C11.0041 6.94858 11.2251 7.07969 11.4686 7.07595ZM11.3974 6.39044C12.4313 4.93701 14.3155 2.1388 15.3494 0.599215C15.3569 0.584231 15.3869 0.546772 15.4431 0.569247C15.503 0.595469 15.4955 0.64042 15.4918 0.655404C15.2895 1.74922 15.1247 2.6445 15.0048 3.32251C14.7388 4.84337 14.7501 4.85835 14.8474 4.97822C14.8961 5.0419 14.9748 5.08311 15.0535 5.08685C15.945 5.13555 16.432 5.12431 17.1137 5.10933C17.3497 5.10558 17.6157 5.09809 17.9266 5.09434C17.9678 5.09434 17.9865 5.12056 17.9978 5.13929C18.009 5.16177 18.0128 5.19174 17.9865 5.22545C15.9038 7.70526 14.5777 9.25608 12.6748 11.3388C12.6636 11.3501 12.6299 11.3875 12.5737 11.3538C12.5175 11.3201 12.5362 11.2714 12.5437 11.2564C12.7947 10.6271 13.0232 10.0203 13.2479 9.43589C13.6075 8.48442 13.9522 7.58539 14.2631 6.88865C14.3043 6.79875 14.2931 6.69386 14.2369 6.61145C14.1844 6.53653 14.0983 6.49158 14.0084 6.49158C14.0009 6.49158 13.9934 6.49158 13.9896 6.49158C13.4839 6.52904 12.922 6.52155 12.3751 6.51406C12.0755 6.51031 11.7645 6.50656 11.4649 6.51031C11.4237 6.51031 11.4049 6.48783 11.3937 6.4691C11.3825 6.45412 11.375 6.42415 11.3974 6.39044ZM13.7574 21.3068C13.6038 21.3068 13.4802 21.1869 13.4764 21.0333C13.4352 19.1978 13.394 16.0699 13.4015 14.1258C13.4015 13.9722 13.5289 13.8449 13.6825 13.8449C13.836 13.8449 13.9634 13.9722 13.9634 14.1258C13.9559 16.0662 13.9971 19.1866 14.0383 21.0183C14.0421 21.1719 13.9185 21.303 13.7649 21.3068C13.7611 21.3068 13.7611 21.3068 13.7574 21.3068Z" fill="black"/>
</svg>
