<svg width="30" height="16" viewBox="0 0 30 16" fill="none" xmlns="http://www.w3.org/2000/svg">
<path d="M29.895 7.30855C29.8679 6.47604 29.8408 5.61642 29.7827 4.76455C29.7711 4.60967 29.6395 4.48963 29.4846 4.4935C29.0548 4.50899 28.6017 4.52061 28.1487 4.5361C27.8041 4.54771 27.4556 4.55546 27.1187 4.56707C27.1148 4.41606 27.111 4.26505 27.1071 4.11016C27.0839 3.22731 27.0568 2.22443 26.5147 1.46161C25.9377 0.648464 24.8535 0.249634 23.2078 0.249634C23.1807 0.249634 23.1498 0.249634 23.1188 0.249634C22.689 0.253506 22.3289 0.257378 21.9184 0.26125C21.1905 0.268994 20.2805 0.28061 18.4683 0.292226L10.2516 0.369669C8.99707 0.381286 7.97095 0.392902 6.88675 0.408391C6.41048 0.416135 5.92259 0.420007 5.39598 0.427751C5.30305 0.427751 5.20624 0.427752 5.10557 0.431624C3.96329 0.439368 2.23631 0.447112 1.37669 1.34158C0.81136 1.93402 0.412529 2.99111 0.195689 4.48963C0.044675 5.54285 -0.0211516 6.8013 0.00595346 8.23012C0.0098256 8.47019 0.0136979 8.71414 0.0136979 8.9697C0.0291865 11.2155 0.0485473 13.7595 1.9033 15.049C2.80551 15.6763 4.57508 15.7847 6.1433 15.7847C6.61958 15.7847 7.07649 15.7731 7.48694 15.7653C7.72701 15.7614 7.95159 15.7537 8.1452 15.7537C8.26911 15.7537 20.4509 15.6298 22.6541 15.6104C24.021 15.5949 25.4343 15.4943 26.3365 14.4372C27.0103 13.6473 27.3084 12.5669 27.2504 11.1265C27.2387 10.8245 27.2271 10.5302 27.2194 10.2359C27.5872 10.2204 27.9512 10.2088 28.3113 10.1933C28.776 10.1739 29.2445 10.1584 29.7208 10.1391C29.7982 10.1352 29.8718 10.1004 29.926 10.0423C29.9802 9.9842 30.0035 9.90676 29.9996 9.82932C29.9492 8.98906 29.9221 8.13719 29.895 7.30855ZM25.9029 14.0616C25.1594 14.9328 23.8932 15.018 22.658 15.0296C20.4509 15.049 8.26911 15.1729 8.14907 15.1729C7.95159 15.1767 7.72701 15.1806 7.48694 15.1845C5.91097 15.2193 3.2663 15.2774 2.24793 14.5688C0.637113 13.4536 0.621624 11.0684 0.606136 8.96196C0.606136 8.70252 0.602264 8.45858 0.598392 8.21463C0.54031 4.91169 0.966246 2.61551 1.8065 1.74041C2.49574 1.02406 4.07171 1.01632 5.11718 1.00857C5.22173 1.00857 5.31854 1.00857 5.41147 1.0047C5.94195 0.996958 6.42984 0.993086 6.90612 0.985341C7.99032 0.969853 9.01256 0.958236 10.2671 0.94662L18.4838 0.869177C20.296 0.85756 21.2059 0.845943 21.9339 0.834327C22.3482 0.830454 22.7045 0.826583 23.1343 0.822711C23.1614 0.822711 23.1885 0.822711 23.2156 0.822711C25.3608 0.822711 25.8758 1.5468 26.05 1.79075C26.4876 2.41029 26.5147 3.31637 26.534 4.11791C26.5689 5.43056 26.5844 6.56123 26.5998 7.55637C26.6115 8.40437 26.6231 9.1788 26.6424 9.94936C26.6424 9.95323 26.6424 9.9571 26.6424 9.96097C26.6424 9.96484 26.6424 9.96484 26.6424 9.96872C26.6541 10.3559 26.6657 10.747 26.6812 11.1458C26.7276 12.4353 26.4759 13.3878 25.9029 14.0616ZM28.2958 9.61248C27.9357 9.62797 27.5756 9.63958 27.2116 9.65507C27.1962 8.98132 27.1845 8.29982 27.1768 7.55637C27.1652 6.83228 27.1536 6.03462 27.1381 5.1479C27.4749 5.13628 27.8234 5.12853 28.1719 5.11692C28.5282 5.1053 28.8805 5.09369 29.2252 5.08594C29.2716 5.83327 29.2949 6.59221 29.3181 7.32791C29.3413 8.06362 29.3646 8.81869 29.411 9.56989C29.0315 9.58537 28.6637 9.60086 28.2958 9.61248ZM6.69315 2.36382H6.68928L5.87225 2.3677C5.64767 2.3677 5.41921 2.37157 5.19076 2.37157C4.76482 2.37157 4.31952 2.37544 3.88584 2.38318H3.84325C3.44055 2.39093 3.20047 2.3948 3.02235 2.56905C2.84424 2.74329 2.83649 2.99111 2.821 3.40156C2.77454 4.59418 2.77841 5.77905 2.78615 6.87487C2.79002 7.36663 2.78228 7.87001 2.77454 8.3579C2.76679 8.95421 2.75518 9.56988 2.76679 10.1778C2.77066 10.2901 2.76679 10.4876 2.76679 10.7393C2.75518 12.7373 2.80164 13.4188 2.96814 13.6589C3.23145 14.0345 3.88197 14.1274 4.67576 14.1274C4.95455 14.1274 5.24884 14.1158 5.54699 14.1003C5.72124 14.0926 5.87225 14.0848 5.97293 14.0848C6.06199 14.0848 6.18202 14.0732 6.3098 14.0616C6.41048 14.0538 6.5189 14.0422 6.58085 14.0422C6.93709 14.0383 7.23138 13.7479 7.23525 13.3878V13.3762C7.27397 9.92612 7.31269 6.47991 7.35141 3.02983C7.35141 2.85171 7.28558 2.68521 7.1578 2.55743C7.03777 2.42965 6.87127 2.36382 6.69315 2.36382ZM6.6583 13.3685V13.3801C6.6583 13.4227 6.62345 13.4575 6.58085 13.4575C6.49567 13.4575 6.38338 13.4691 6.26334 13.4769C6.15879 13.4846 6.04263 13.4962 5.9768 13.4962C5.86064 13.4962 5.70575 13.504 5.52376 13.5117C5.15203 13.5311 4.64478 13.5543 4.2111 13.5233C3.63028 13.4808 3.48314 13.3607 3.45216 13.3259C3.336 13.0432 3.34761 11.3704 3.35149 10.7354C3.35149 10.4798 3.35536 10.2785 3.35149 10.1584C3.33987 9.56214 3.34761 8.95034 3.35923 8.3579C3.36697 7.87001 3.37472 7.36276 3.37085 6.86326C3.35923 5.77131 3.35923 4.59805 3.4057 3.41705C3.41344 3.25442 3.42119 3.05694 3.44055 2.98337C3.51024 2.96788 3.68836 2.96401 3.85874 2.96013H3.90133C4.33114 2.95239 4.77256 2.95239 5.1985 2.94852C5.42696 2.94852 5.65154 2.94852 5.88 2.94465L6.69702 2.94077C6.72412 2.94077 6.74348 2.95239 6.7551 2.96401C6.76672 2.97562 6.77833 2.99498 6.77833 3.02209C6.73574 6.47217 6.69702 9.91838 6.6583 13.3685ZM12.3542 2.3251H12.3503C11.2933 2.33285 10.2362 2.34059 9.18294 2.34446C8.79185 2.34834 8.47433 2.66972 8.47433 3.06081V4.07531C8.47821 7.14592 8.48208 10.2165 8.48595 13.2871C8.48595 13.4808 8.55952 13.6589 8.69892 13.7944C8.83444 13.926 9.01256 13.9996 9.2023 13.9996C9.20617 13.9996 9.20617 13.9996 9.21004 13.9996C9.36105 13.9996 9.51207 13.9957 9.66308 13.9957C10.5227 13.9957 11.4327 13.9957 12.4433 13.9919C12.633 13.9919 12.815 13.9144 12.9505 13.7789C13.0861 13.6434 13.1596 13.4614 13.1558 13.2717L13.0744 3.02983C13.0628 2.64262 12.7453 2.3251 12.3542 2.3251ZM12.5285 13.3723C12.513 13.3878 12.482 13.4111 12.4355 13.4111C11.4249 13.4149 10.515 13.4149 9.65534 13.4149C9.50045 13.4149 9.34944 13.4149 9.19455 13.4188C9.14809 13.4188 9.11711 13.3956 9.10162 13.3801C9.08613 13.3646 9.0629 13.3336 9.0629 13.2871C9.05903 10.2165 9.05516 7.14592 9.05128 4.07531V3.06081C9.05128 2.98724 9.10937 2.92916 9.18294 2.92528C10.24 2.91754 11.2971 2.9098 12.3503 2.90592C12.4239 2.90592 12.482 2.96401 12.4859 3.03758L12.5672 13.2794C12.5672 13.3259 12.544 13.3607 12.5285 13.3723ZM18.4141 2.4645C18.298 2.34834 18.1431 2.28638 17.9804 2.28638H17.9766L14.6272 2.30961C14.4607 2.30961 14.3058 2.37544 14.1935 2.49548C14.0773 2.61551 14.0154 2.7704 14.0192 2.9369C14.0541 4.92331 14.0502 6.94457 14.0502 8.9C14.0463 10.3675 14.0463 11.8854 14.058 13.3762C14.0618 13.7131 14.3368 13.9841 14.6736 13.9841H14.6775C15.5178 13.9803 16.3541 13.9764 17.1944 13.9686L18.0347 13.9648C18.3715 13.9609 18.6465 13.686 18.6465 13.3491C18.631 9.86804 18.6155 6.38311 18.6039 2.90205C18.5961 2.73555 18.5342 2.58066 18.4141 2.4645ZM18.0269 13.3839L17.1867 13.3878C16.3464 13.3917 15.51 13.3994 14.6698 13.4033C14.6504 13.4033 14.6349 13.3878 14.6349 13.3685C14.6194 11.8777 14.6233 10.3637 14.6272 8.9C14.631 6.9407 14.6349 4.91944 14.5962 2.92528C14.5962 2.91754 14.6001 2.90592 14.6039 2.90205C14.6117 2.89431 14.6194 2.89044 14.6272 2.89044L17.9766 2.8672C17.9882 2.8672 17.9921 2.87108 17.9998 2.87882C18.0076 2.88656 18.0114 2.89431 18.0114 2.90205C18.0269 6.38311 18.0385 9.86804 18.054 13.3491C18.0618 13.3685 18.0463 13.3839 18.0269 13.3839ZM24.1101 2.78976C24.0829 2.47224 23.8235 2.23217 23.506 2.2283C23.0839 2.22443 22.6425 2.23604 22.2166 2.24766C21.8565 2.2554 21.4809 2.26702 21.1208 2.26702L20.2379 2.27089C19.901 2.27476 19.6261 2.54969 19.6261 2.88656C19.63 6.06172 19.6455 9.64346 19.6571 13.3375C19.6571 13.5001 19.7229 13.655 19.8391 13.7712C19.9552 13.8873 20.1101 13.9493 20.2728 13.9493H20.2766C21.175 13.9454 22.0036 13.9415 22.809 13.9415C23.4479 13.9415 23.8855 13.9144 24.1101 13.5543C24.2727 13.2949 24.2727 12.9232 24.2649 12.3617C24.2572 11.4634 24.2611 10.5534 24.2688 9.67056C24.2688 9.47308 24.2727 9.27947 24.2727 9.08199C24.2882 6.84002 24.2843 4.81876 24.1101 2.78976ZM23.6919 9.07812C23.6919 9.2756 23.688 9.46921 23.688 9.66669C23.6802 10.5534 23.6725 11.4672 23.6841 12.3694C23.688 12.7799 23.6919 13.1323 23.6183 13.2484C23.5602 13.3414 23.2504 13.3646 22.809 13.3646C21.9997 13.3646 21.1711 13.3685 20.2766 13.3723C20.2689 13.3723 20.2611 13.3685 20.2534 13.3607C20.2457 13.353 20.2418 13.3452 20.2418 13.3375C20.2263 9.64346 20.2147 6.06172 20.2108 2.88656C20.2108 2.8672 20.2263 2.85171 20.2457 2.85171L21.1285 2.84784C21.4925 2.84784 21.872 2.83623 22.2359 2.82848C22.596 2.82074 22.9678 2.80912 23.3279 2.80912C23.386 2.80912 23.444 2.80912 23.5021 2.80912C23.5176 2.80912 23.5331 2.82074 23.5331 2.8401C23.7035 4.84587 23.7074 6.85164 23.6919 9.07812Z" fill="black"/>
</svg>
