<svg width="30" height="24" viewBox="0 0 30 24" fill="none" xmlns="http://www.w3.org/2000/svg">
<path d="M12.3693 15.3557C12.3734 15.3557 12.3734 15.3557 12.3774 15.3557C12.5956 15.3516 12.7936 15.3475 12.9836 15.3434C13.2988 15.3351 13.5978 15.3269 13.9736 15.331C13.7675 15.8366 13.5453 16.4244 13.319 17.0328C13.1412 17.5137 12.9553 18.011 12.7532 18.5249C12.6441 18.8003 12.7452 19.1044 12.9916 19.2606C13.0927 19.3223 13.2018 19.3552 13.3109 19.3552C13.4725 19.3552 13.6301 19.2853 13.7473 19.1579C15.295 17.4356 16.3699 16.1572 18.063 14.1061C18.2126 13.9211 18.2449 13.6745 18.1439 13.4566C18.0428 13.2429 17.8408 13.1114 17.6064 13.1114C17.6024 13.1114 17.6024 13.1114 17.5983 13.1114C17.3437 13.1155 17.1255 13.1196 16.9356 13.1237C16.483 13.136 16.1395 13.1401 15.6263 13.1237C15.6789 12.762 15.8163 11.9481 16.1557 10.0943C16.2082 9.81066 16.0587 9.53115 15.7961 9.42428C15.5334 9.31329 15.2384 9.40784 15.0768 9.64624C14.2443 10.9123 12.7209 13.21 11.8885 14.4021C11.7592 14.587 11.743 14.8295 11.844 15.031C11.9491 15.2324 12.1471 15.3557 12.3693 15.3557ZM15.5496 10.0367C15.3879 10.9123 15.2586 11.6316 15.1657 12.1783C15.1051 12.5359 15.0566 12.8195 15.0283 13.0168C14.9758 13.3744 14.9596 13.4813 15.0525 13.6046C15.1051 13.6745 15.1899 13.7197 15.2748 13.7238C15.9981 13.7649 16.3982 13.7526 16.9477 13.7403C17.1296 13.7362 17.3397 13.732 17.5781 13.7279C15.9173 15.738 14.8505 17.004 13.3392 18.6934C13.5331 18.196 13.7109 17.7192 13.8847 17.2547C14.1756 16.4737 14.4545 15.7338 14.705 15.1625C14.7454 15.068 14.7373 14.9611 14.6848 14.8748C14.6323 14.7884 14.5393 14.735 14.4383 14.7309C14.1959 14.7227 13.9817 14.7186 13.7837 14.7186C13.4806 14.7186 13.2179 14.7268 12.9634 14.735C12.7815 14.7391 12.5916 14.7473 12.3895 14.7473C13.222 13.5512 14.7091 11.311 15.5496 10.0367ZM29.903 4.11766C29.8464 4.05601 29.7656 4.01901 29.6808 4.01901L27.1511 4.03545L27.1107 3.49287C27.0986 3.33667 27.0784 3.07771 26.8966 2.88452C26.6783 2.65434 26.3631 2.65845 26.1934 2.66256C26.1409 2.66256 26.0924 2.66256 26.0399 2.66256C26.0318 2.47347 26.0277 2.2885 26.0197 2.10353C25.9954 1.5404 25.9752 0.960822 25.9833 0.422351C25.9873 0.266153 25.8742 0.134618 25.7206 0.114066C24.6538 -0.0380218 23.6719 -0.0380218 22.5364 0.114066C22.3747 0.134618 22.2616 0.282594 22.2737 0.447013C22.3182 0.973153 22.3303 1.51162 22.3424 2.03365C22.3464 2.26384 22.3545 2.49814 22.3626 2.73243C22.1565 2.76532 21.9181 2.84753 21.7524 3.06127C21.5504 3.32023 21.5625 3.64907 21.5665 3.86692C21.5706 3.9368 21.5706 4.00257 21.5746 4.07245L8.06573 4.15466C8.06573 4.093 8.06169 4.03545 8.05765 3.97791C8.04957 3.7806 8.03745 3.51342 7.87985 3.28324C7.66972 2.97906 7.31412 2.90096 7.04741 2.8763C7.04337 2.62145 7.04337 2.3666 7.03933 2.10764C7.03529 1.61439 7.03125 1.10469 7.02317 0.603211C7.01913 0.447013 6.90194 0.315479 6.74838 0.299037C5.88766 0.220938 5.02694 0.245601 3.67322 0.381246C3.51967 0.397688 3.39844 0.529223 3.39844 0.689531L3.3944 2.84753C3.14386 2.84753 2.78825 2.88452 2.55792 3.16403C2.35587 3.41066 2.35183 3.72306 2.35183 3.92858C2.35183 4.01901 2.34779 4.10533 2.34779 4.19165L0.303071 4.20398C0.222252 4.20398 0.141433 4.24098 0.0848599 4.29852C0.0282866 4.36018 0 4.44239 0 4.5246C0.0323276 5.21516 0.0363685 5.71663 0.0404095 6.20578C0.0444504 6.69904 0.0484914 7.20873 0.080819 7.91162C0.0889009 8.07604 0.222252 8.20758 0.38389 8.20758C0.38389 8.20758 0.38389 8.20758 0.387931 8.20758C0.678879 8.20347 0.969827 8.20347 1.26482 8.19936L1.382 21.0446C1.03448 21.0446 0.699084 21.0405 0.375808 21.0405C0.290948 21.0405 0.21417 21.0733 0.157597 21.135C0.101024 21.1967 0.0686962 21.2789 0.0767781 21.3652C0.105065 21.8584 0.0969827 22.1667 0.0848599 22.4915C0.072737 22.8162 0.0646552 23.1532 0.0969828 23.6753C0.105065 23.8356 0.234375 23.963 0.396013 23.963C1.81034 23.9877 3.53179 24 5.42295 24C8.36476 24 11.7268 23.9753 15.0162 23.9548C20.423 23.9178 26.0116 23.8808 29.6242 23.9425H29.6282C29.7091 23.9425 29.7899 23.9096 29.8464 23.8479C29.903 23.7863 29.9353 23.6999 29.9313 23.6136C29.899 23.0957 29.8909 22.7504 29.8788 22.4175C29.8707 22.0804 29.8586 21.731 29.8262 21.1967C29.8141 21.0364 29.6848 20.9089 29.5272 20.9089C29.208 20.9089 28.8766 20.9048 28.5331 20.9048L28.5412 20.1773C28.5776 16.1079 28.618 12.0426 28.6544 7.97328C28.9857 7.96917 29.3171 7.96917 29.6484 7.96506C29.806 7.96506 29.9353 7.84175 29.9475 7.68144C30.004 6.97033 29.9879 6.46885 29.9758 5.9797C29.9596 5.48645 29.9475 5.02608 30 4.34785C29.9879 4.26564 29.9596 4.18343 29.903 4.11766ZM25.3691 0.693641C25.3691 1.16635 25.3893 1.65549 25.4095 2.13231C25.4176 2.30906 25.4256 2.49403 25.4297 2.67489C24.6094 2.68722 23.7891 2.69544 22.9647 2.70777C22.9566 2.47758 22.9485 2.2474 22.9445 2.02132C22.9324 1.58561 22.9203 1.14168 22.892 0.693641C23.7648 0.59499 24.5488 0.59499 25.3691 0.693641ZM22.2252 3.44354C22.298 3.349 22.496 3.33256 22.6818 3.32845L22.8516 3.32434C23.8173 3.31201 24.7791 3.29968 25.7449 3.28735C25.8944 3.28735 26.0439 3.28324 26.1975 3.28324C26.347 3.28324 26.4359 3.29146 26.4601 3.32023C26.4925 3.35311 26.5005 3.48876 26.5046 3.54631L26.541 4.04367L22.1767 4.06834C22.1727 3.99435 22.1727 3.92036 22.1686 3.84637C22.1646 3.71895 22.1606 3.52575 22.2252 3.44354ZM3.9965 0.964932C5.01886 0.870392 5.73815 0.845729 6.41298 0.890944C6.41703 1.29788 6.42107 1.70893 6.42511 2.11175C6.42915 2.35838 6.42915 2.60501 6.43319 2.85575C6.01293 2.85164 5.58459 2.85164 5.16433 2.85575C4.7764 2.85986 4.38039 2.85986 3.99246 2.85575L3.9965 0.964932ZM2.94989 3.93269C2.94989 3.81349 2.95393 3.63263 3.01859 3.55453C3.09537 3.45999 3.3055 3.45588 3.5035 3.45999C3.56412 3.45999 3.62473 3.4641 3.68534 3.4641C4.1743 3.47643 4.67942 3.47232 5.17241 3.46821C5.68966 3.4641 6.2271 3.45999 6.7403 3.47232C6.76455 3.47232 6.79283 3.47232 6.81708 3.47232C7.04741 3.48054 7.29795 3.5052 7.38281 3.62852C7.43938 3.71073 7.44747 3.86692 7.45151 3.99435C7.45555 4.04367 7.45555 4.093 7.45555 4.14644L2.94585 4.18343C2.94585 4.10122 2.94989 4.01901 2.94989 3.93269ZM29.2241 21.5296C29.2443 21.8954 29.2524 22.1708 29.2565 22.438C29.2645 22.7011 29.2726 22.9683 29.2888 23.3218C25.6641 23.2642 20.2452 23.3012 14.996 23.3382C9.7306 23.3752 4.28745 23.4122 0.670797 23.3547C0.658675 23.0176 0.666757 22.771 0.674839 22.512C0.68292 22.2613 0.691002 22.0023 0.678879 21.657C4.37231 21.6735 9.73869 21.6324 14.9353 21.5913C19.6835 21.5543 24.577 21.5173 28.2018 21.5255C28.2018 21.5255 28.2018 21.5255 28.2058 21.5255C28.5614 21.5255 28.8968 21.5255 29.2241 21.5296ZM1.85884 8.19114C6.17457 8.15414 10.656 8.12126 15.004 8.08837C19.3117 8.05549 23.7527 8.02672 28.0321 7.98561C27.9957 12.0509 27.9553 16.112 27.9189 20.1773L27.9108 20.9089C24.3144 20.9048 19.5582 20.9418 14.9353 20.9747C10.3206 21.0117 5.56843 21.0446 1.97602 21.0405L1.85884 8.19114ZM29.3454 7.35671C29.01 7.36082 28.6786 7.36493 28.3432 7.36493C28.3432 7.36493 28.3432 7.36493 28.3392 7.36493C28.3392 7.36493 28.3392 7.36493 28.3351 7.36493C23.9628 7.40604 19.4127 7.43892 15 7.46769C10.2519 7.50058 5.34213 7.53757 0.666756 7.58279C0.646552 7.04021 0.642511 6.61272 0.63847 6.19756C0.634429 5.7824 0.630388 5.35491 0.610183 4.81233L2.6347 4.8H2.63874C2.63874 4.8 2.63874 4.8 2.64278 4.8L7.77074 4.76712H7.77478C7.77478 4.76712 7.77478 4.76712 7.77883 4.76712L29.3615 4.63558C29.3332 5.17816 29.3454 5.59332 29.3575 6.00026C29.3615 6.42364 29.3737 6.82646 29.3454 7.35671Z" fill="black"/>
</svg>
