<svg width="29" height="29" viewBox="0 0 29 29" fill="none" xmlns="http://www.w3.org/2000/svg">
<path d="M28.8695 23.116L28.7252 22.681C28.3833 21.6647 27.2628 20.6047 26.2333 20.3255L22.4234 19.2845C21.3902 19.0033 19.9163 19.3814 19.1604 20.1374L17.7815 21.5166C12.7703 20.1622 8.84067 16.2318 7.48839 11.2206L8.86735 9.84139C9.62329 9.08531 10.0012 7.61315 9.72011 6.57975L8.68119 2.76719C8.4001 1.73568 7.33839 0.614936 6.32421 0.276772L5.88929 0.130517C4.87316 -0.207647 3.424 0.134346 2.66812 0.890366L0.60548 2.95527C0.23699 3.32188 0.00148004 4.37048 0.00148004 4.3743C-0.070662 10.9242 2.49716 17.2347 7.12944 21.8679C11.7504 26.4897 18.0361 29.0542 24.5658 28.9991C24.5999 28.9991 25.6787 28.7673 26.0472 28.4007L28.1098 26.3377C28.8657 25.5817 29.2076 24.1323 28.8695 23.116Z" fill="white"/>
</svg>
