<svg width="30" height="20" viewBox="0 0 30 20" fill="none" xmlns="http://www.w3.org/2000/svg">
<path d="M8.43116 17.5809C8.43116 17.7371 8.30338 17.8666 8.14462 17.8704C7.9239 17.8742 7.66058 17.878 7.38178 17.8856C6.94035 17.8971 6.44083 17.9123 5.92195 17.9123C4.41951 17.9123 2.76219 17.8018 1.90255 17.2151C0.0438733 15.9465 0.0283841 13.4435 0.0128951 11.2339C0.0128951 10.9825 0.00902301 10.7425 0.00515076 10.5063C-0.037444 8.10238 0.163913 4.97463 1.37593 3.72887C2.23557 2.84883 3.96259 2.84121 5.1049 2.83359C5.20558 2.83359 5.30239 2.83359 5.39532 2.82978C5.92195 2.82216 6.40985 2.81835 6.88614 2.81073C7.97037 2.7955 8.99651 2.78407 10.2511 2.77264C10.2511 2.77264 10.2511 2.77264 10.255 2.77264C10.4138 2.77264 10.5454 2.89836 10.5454 3.05456C10.5454 3.21075 10.4176 3.34028 10.2589 3.34409C9.00426 3.35552 7.97811 3.36695 6.89388 3.38219C6.41759 3.38981 5.92969 3.39362 5.40306 3.40123C5.31013 3.40123 5.21332 3.40124 5.10877 3.40504C4.06327 3.40885 2.48339 3.42028 1.798 4.12507C0.957724 4.98606 0.531776 7.24901 0.58986 10.4949C0.593732 10.7349 0.597605 10.9749 0.597605 11.2301C0.613094 13.2988 0.628583 15.6455 2.23944 16.7465C3.23848 17.4285 5.82514 17.3599 7.37017 17.318C7.65284 17.3104 7.91615 17.3027 8.14074 17.3027H8.14462C8.29951 17.2989 8.43116 17.4247 8.43116 17.5809ZM29.9996 12.0797C30.0035 12.1559 29.9802 12.2321 29.926 12.2892C29.8718 12.3464 29.7982 12.3806 29.7208 12.3845C29.2445 12.4035 28.7798 12.4187 28.3113 12.4378C27.9473 12.453 27.5872 12.4645 27.2193 12.4797C27.2271 12.7692 27.2387 13.0588 27.2503 13.3559C27.3084 14.7731 27.0102 15.836 26.3364 16.6132C25.4342 17.6532 24.0247 17.7523 22.6539 17.7675C20.2764 17.7866 18.2551 17.8018 16.1176 17.8094C15.9588 17.8094 15.8272 17.6837 15.8272 17.5237C15.8272 17.3675 15.9549 17.238 16.1176 17.238C18.2551 17.2304 20.2764 17.2189 22.6501 17.1961C23.8853 17.1846 25.1515 17.1008 25.895 16.2437C26.4681 15.5808 26.7237 14.6474 26.6695 13.3788C26.654 12.9864 26.6423 12.6054 26.6307 12.2206C26.6307 12.2168 26.6307 12.2168 26.6307 12.213C26.6307 12.2092 26.6307 12.2054 26.6307 12.2016C26.6114 11.4435 26.5997 10.6815 26.5881 9.84721C26.5726 8.86431 26.5572 7.7557 26.5223 6.46422C26.4991 5.67561 26.4758 4.78034 26.0383 4.1746C25.3374 3.20694 23.6723 3.21837 23.1225 3.22218C22.6927 3.22599 22.3364 3.2298 21.9259 3.23361C21.1941 3.24123 20.288 3.25266 18.4719 3.2679C18.4719 3.2679 18.4719 3.2679 18.468 3.2679C18.3093 3.2679 18.1776 3.14218 18.1776 2.98598C18.1776 2.82978 18.3054 2.70025 18.4642 2.69644C20.2802 2.68502 21.1863 2.67359 21.9143 2.66216C22.3287 2.65835 22.681 2.65454 23.1147 2.65073C23.1457 2.65073 23.1728 2.65073 23.2038 2.65073C24.8495 2.65073 25.9299 3.03932 26.5107 3.84316C27.0528 4.59366 27.0799 5.58037 27.1031 6.44898C27.107 6.60136 27.1109 6.74994 27.1148 6.89852C27.4516 6.88709 27.7963 6.87947 28.1448 6.86804C28.5978 6.8528 29.047 6.84137 29.4807 6.82614C29.6356 6.82233 29.7673 6.94043 29.7789 7.09281C29.837 7.92713 29.8641 8.77669 29.8912 9.59577C29.9144 10.4149 29.9415 11.253 29.9996 12.0797ZM29.3994 11.8244C29.3529 11.0854 29.3297 10.3387 29.3065 9.61863C29.2832 8.89479 29.26 8.14809 29.2135 7.41283C28.8689 7.42426 28.5126 7.43568 28.1603 7.4433C27.8118 7.45473 27.4633 7.46616 27.1264 7.47378C27.1457 8.3462 27.1574 9.13099 27.1651 9.8434C27.1767 10.571 27.1845 11.2454 27.1999 11.9082C27.5639 11.893 27.9241 11.8816 28.2842 11.8663C28.6559 11.8549 29.0238 11.8397 29.3994 11.8244ZM20.7836 9.23004C17.1592 13.4778 14.8513 16.1256 11.5367 19.699C11.3547 19.8971 11.1146 20 10.8668 20C10.7003 20 10.5299 19.9543 10.375 19.8552C9.98781 19.619 9.84066 19.1771 10.011 18.758C10.4409 17.6913 10.8397 16.6551 11.2269 15.657C11.7845 14.2093 12.3189 12.8302 12.8184 11.6911C12.044 11.7254 11.2269 11.714 10.4331 11.7063C9.91811 11.7025 9.38374 11.6949 8.86873 11.7025C8.86485 11.7025 8.86098 11.7025 8.85711 11.7025C8.51635 11.7025 8.2027 11.5197 8.04394 11.2187C7.88518 10.9177 7.90841 10.5558 8.10977 10.2777C9.89874 7.80522 13.1669 3.02789 14.9559 0.403019C15.2037 0.0372905 15.649 -0.0960487 16.0634 0.0715771C16.4777 0.239203 16.6984 0.639219 16.6171 1.06971C15.742 5.68323 15.4903 7.23758 15.4244 7.75189C16.7642 7.81665 17.5658 7.7976 18.6539 7.77475C19.0644 7.76713 19.529 7.7557 20.0711 7.74808C20.075 7.74808 20.0789 7.74808 20.0828 7.74808C20.439 7.74808 20.7565 7.94618 20.9075 8.26238C21.0663 8.58621 21.016 8.95574 20.7836 9.23004ZM20.3848 8.51001C20.3267 8.39191 20.2105 8.31953 20.0789 8.32334C19.5368 8.33096 19.076 8.34239 18.6655 8.35001C17.4922 8.37668 16.6442 8.39572 15.1069 8.31191C15.0217 8.3081 14.9443 8.26619 14.8901 8.20143C14.7855 8.0719 14.7584 8.0338 15.2037 5.52704C15.409 4.36889 15.6916 2.8374 16.0479 0.970661C16.0866 0.776368 15.9666 0.654458 15.8465 0.604932C15.7226 0.555406 15.5561 0.563026 15.4438 0.726842C13.6548 3.35552 10.3828 8.13666 8.58605 10.613C8.51248 10.7158 8.50086 10.8453 8.56282 10.9558C8.6209 11.0663 8.73707 11.1311 8.86485 11.1311C9.38374 11.1235 9.92198 11.1311 10.4409 11.1349C11.3896 11.1463 12.3731 11.1577 13.256 11.093C13.2637 11.093 13.2715 11.093 13.2753 11.093C13.3683 11.093 13.4573 11.1387 13.5116 11.2149C13.5696 11.2987 13.5813 11.4054 13.5387 11.4968C12.9927 12.6968 12.3963 14.2321 11.769 15.8589C11.3818 16.8608 10.983 17.8971 10.5493 18.9676C10.4718 19.1543 10.5686 19.299 10.6848 19.3676C10.801 19.4362 10.9714 19.459 11.1108 19.3104C14.4177 15.7446 16.7216 13.1007 20.3383 8.8605C20.4274 8.76145 20.4429 8.62811 20.3848 8.51001Z" fill="black"/>
</svg>
