<svg width="25" height="25" viewBox="0 0 25 25" fill="none" xmlns="http://www.w3.org/2000/svg">
<g clip-path="url(#clip0_144_489)">
<path d="M12.5 7.61719C11.5343 7.61719 10.5902 7.90356 9.78726 8.44009C8.98428 8.97662 8.35844 9.73921 7.98887 10.6314C7.6193 11.5236 7.52261 12.5054 7.71101 13.4526C7.89942 14.3998 8.36446 15.2698 9.04733 15.9527C9.73021 16.6355 10.6002 17.1006 11.5474 17.289C12.4946 17.4774 13.4764 17.3807 14.3686 17.0111C15.2608 16.6416 16.0234 16.0157 16.5599 15.2127C17.0964 14.4098 17.3828 13.4657 17.3828 12.5C17.3828 11.205 16.8684 9.96304 15.9527 9.04733C15.037 8.13163 13.795 7.61719 12.5 7.61719ZM12.5 16.2109C11.766 16.2109 11.0486 15.9933 10.4383 15.5855C9.82805 15.1778 9.35241 14.5982 9.07154 13.9201C8.79067 13.242 8.71718 12.4959 8.86037 11.776C9.00356 11.0562 9.35699 10.395 9.87597 9.87597C10.395 9.35699 11.0562 9.00355 11.776 8.86037C12.4959 8.71718 13.242 8.79067 13.9201 9.07154C14.5982 9.35241 15.1778 9.82805 15.5855 10.4383C15.9933 11.0486 16.2109 11.766 16.2109 12.5C16.2109 13.4842 15.82 14.4281 15.124 15.124C14.4281 15.82 13.4842 16.2109 12.5 16.2109Z" fill="white"/>
<path d="M23.6328 9.375H21.8887C21.8481 9.3747 21.8086 9.36174 21.7756 9.33794C21.7427 9.31414 21.7181 9.28067 21.7051 9.24219C21.5916 8.9198 21.4612 8.60361 21.3145 8.29492C21.2961 8.2585 21.2897 8.21725 21.296 8.17698C21.3023 8.13669 21.321 8.0994 21.3496 8.07031L22.582 6.83594C22.709 6.70898 22.8097 6.55826 22.8784 6.39237C22.9472 6.22649 22.9825 6.04869 22.9825 5.86914C22.9825 5.68959 22.9472 5.51179 22.8784 5.34591C22.8097 5.18002 22.709 5.0293 22.582 4.90234L20.0957 2.41797C19.9687 2.291 19.818 2.19028 19.6521 2.12156C19.4863 2.05285 19.3085 2.01748 19.1289 2.01748C18.9494 2.01748 18.7716 2.05285 18.6057 2.12156C18.4398 2.19028 18.2891 2.291 18.1621 2.41797L16.9297 3.65039C16.9006 3.67896 16.8633 3.69771 16.823 3.70402C16.7827 3.71032 16.7415 3.70386 16.7051 3.68555C16.3964 3.53877 16.0802 3.40838 15.7578 3.29492C15.7193 3.28193 15.6859 3.25726 15.6621 3.22435C15.6383 3.19145 15.6253 3.15194 15.625 3.11133V1.36719C15.625 1.00459 15.481 0.656837 15.2246 0.40044C14.9682 0.144043 14.6204 0 14.2578 0H10.7422C10.3796 0 10.0318 0.144043 9.77544 0.40044C9.51904 0.656837 9.375 1.00459 9.375 1.36719V3.11133C9.3747 3.15194 9.36174 3.19145 9.33794 3.22435C9.31414 3.25726 9.28067 3.28193 9.24219 3.29492C8.9198 3.40843 8.60361 3.53882 8.29492 3.68555C8.2585 3.70386 8.21725 3.71032 8.17698 3.70402C8.13669 3.69771 8.0994 3.67896 8.07031 3.65039L6.83594 2.41797C6.70898 2.291 6.55826 2.19028 6.39237 2.12156C6.22649 2.05285 6.04869 2.01748 5.86914 2.01748C5.68959 2.01748 5.51179 2.05285 5.34591 2.12156C5.18002 2.19028 5.0293 2.291 4.90234 2.41797L2.41797 4.9043C2.291 5.03125 2.19028 5.18198 2.12156 5.34786C2.05285 5.51375 2.01748 5.69154 2.01748 5.87109C2.01748 6.05065 2.05285 6.22844 2.12156 6.39433C2.19028 6.56021 2.291 6.71093 2.41797 6.83789L3.65039 8.07031C3.67896 8.0994 3.69771 8.13669 3.70402 8.17698C3.71032 8.21725 3.70386 8.2585 3.68555 8.29492C3.53877 8.60359 3.40838 8.91978 3.29492 9.24219C3.28193 9.28067 3.25726 9.31414 3.22435 9.33794C3.19145 9.36174 3.15194 9.3747 3.11133 9.375H1.36719C1.00459 9.375 0.656837 9.51904 0.40044 9.77544C0.144043 10.0318 0 10.3796 0 10.7422L0 14.2578C0 14.6204 0.144043 14.9682 0.40044 15.2246C0.656837 15.481 1.00459 15.625 1.36719 15.625H3.11133C3.15194 15.6253 3.19145 15.6383 3.22435 15.6621C3.25726 15.6859 3.28193 15.7193 3.29492 15.7578C3.40843 16.0802 3.53882 16.3964 3.68555 16.7051C3.70386 16.7415 3.71032 16.7827 3.70402 16.823C3.69771 16.8633 3.67896 16.9006 3.65039 16.9297L2.41797 18.1641C2.291 18.291 2.19028 18.4417 2.12156 18.6076C2.05285 18.7735 2.01748 18.9513 2.01748 19.1309C2.01748 19.3104 2.05285 19.4882 2.12156 19.6541C2.19028 19.82 2.291 19.9707 2.41797 20.0977L4.9043 22.584C5.03125 22.711 5.18198 22.8117 5.34786 22.8804C5.51375 22.9491 5.69154 22.9845 5.87109 22.9845C6.05065 22.9845 6.22844 22.9491 6.39433 22.8804C6.56021 22.8117 6.71093 22.711 6.83789 22.584L8.07031 21.3516C8.0994 21.323 8.13669 21.3042 8.17698 21.2979C8.21725 21.2916 8.2585 21.2981 8.29492 21.3164C8.60359 21.4632 8.91978 21.5936 9.24219 21.707C9.28067 21.72 9.31414 21.7447 9.33794 21.7776C9.36174 21.8105 9.3747 21.85 9.375 21.8906V23.6328C9.375 23.9954 9.51904 24.3432 9.77544 24.5996C10.0318 24.856 10.3796 25 10.7422 25H14.2578C14.6204 25 14.9682 24.856 15.2246 24.5996C15.481 24.3432 15.625 23.9954 15.625 23.6328V21.8887C15.6253 21.8481 15.6383 21.8086 15.6621 21.7756C15.6859 21.7427 15.7193 21.7181 15.7578 21.7051C16.0802 21.5916 16.3964 21.4612 16.7051 21.3145C16.7415 21.2961 16.7827 21.2897 16.823 21.296C16.8633 21.3023 16.9006 21.321 16.9297 21.3496L18.1641 22.582C18.291 22.709 18.4417 22.8097 18.6076 22.8784C18.7735 22.9472 18.9513 22.9825 19.1309 22.9825C19.3104 22.9825 19.4882 22.9472 19.6541 22.8784C19.82 22.8097 19.9707 22.709 20.0977 22.582L22.584 20.0957C22.711 19.9687 22.8117 19.818 22.8804 19.6521C22.9491 19.4863 22.9845 19.3085 22.9845 19.1289C22.9845 18.9494 22.9491 18.7716 22.8804 18.6057C22.8117 18.4398 22.711 18.2891 22.584 18.1621L21.3516 16.9297C21.323 16.9006 21.3042 16.8633 21.2979 16.823C21.2916 16.7827 21.2981 16.7415 21.3164 16.7051C21.4632 16.3964 21.5936 16.0802 21.707 15.7578C21.72 15.7193 21.7447 15.6859 21.7776 15.6621C21.8105 15.6383 21.85 15.6253 21.8906 15.625H23.6328C23.9954 15.625 24.3432 15.481 24.5996 15.2246C24.856 14.9682 25 14.6204 25 14.2578V10.7422C25 10.3796 24.856 10.0318 24.5996 9.77544C24.3432 9.51904 23.9954 9.375 23.6328 9.375ZM23.8281 14.2578C23.8281 14.3096 23.8075 14.3593 23.7709 14.3959C23.7343 14.4325 23.6846 14.4531 23.6328 14.4531H21.8887C21.6054 14.4534 21.3292 14.5418 21.0983 14.7058C20.8673 14.8699 20.6931 15.1017 20.5996 15.3691C20.4997 15.6523 20.3849 15.93 20.2559 16.2012C20.1321 16.4567 20.091 16.7445 20.1382 17.0245C20.1855 17.3045 20.3188 17.5629 20.5195 17.7637L21.752 18.9961C21.7883 19.0327 21.8087 19.0822 21.8087 19.1338C21.8087 19.1854 21.7883 19.2349 21.752 19.2715L19.2676 21.7539C19.231 21.7903 19.1815 21.8107 19.1299 21.8107C19.0783 21.8107 19.0288 21.7903 18.9922 21.7539L17.7598 20.5215C17.559 20.3207 17.3006 20.1875 17.0206 20.1402C16.7406 20.093 16.4528 20.1341 16.1973 20.2578C15.9255 20.387 15.6471 20.5017 15.3633 20.6016C15.0962 20.6954 14.8649 20.8698 14.7011 21.1007C14.5374 21.3316 14.4494 21.6076 14.4492 21.8906V23.6328C14.4492 23.6846 14.4286 23.7343 14.392 23.7709C14.3554 23.8075 14.3057 23.8281 14.2539 23.8281H10.7422C10.6904 23.8281 10.6407 23.8075 10.6041 23.7709C10.5675 23.7343 10.5469 23.6846 10.5469 23.6328V21.8887C10.5466 21.6054 10.4582 21.3292 10.2942 21.0983C10.1301 20.8673 9.89828 20.6931 9.63086 20.5996C9.34769 20.4997 9.06996 20.3849 8.79883 20.2559C8.54325 20.1321 8.25549 20.091 7.97548 20.1382C7.69548 20.1855 7.43714 20.3188 7.23633 20.5195L6.00391 21.752C5.96731 21.7883 5.91781 21.8087 5.86621 21.8087C5.81461 21.8087 5.76511 21.7883 5.72852 21.752L3.24609 19.2676C3.20972 19.231 3.1893 19.1815 3.1893 19.1299C3.1893 19.0783 3.20972 19.0288 3.24609 18.9922L4.47852 17.7598C4.67929 17.559 4.81255 17.3006 4.8598 17.0206C4.90705 16.7406 4.86594 16.4528 4.74219 16.1973C4.61304 15.9255 4.4983 15.6471 4.39844 15.3633C4.30409 15.0973 4.12972 14.867 3.89927 14.704C3.66881 14.5411 3.39358 14.4534 3.11133 14.4531H1.36719C1.31539 14.4531 1.26571 14.4325 1.22908 14.3959C1.19245 14.3593 1.17188 14.3096 1.17188 14.2578V10.7422C1.17188 10.6904 1.19245 10.6407 1.22908 10.6041C1.26571 10.5675 1.31539 10.5469 1.36719 10.5469H3.11133C3.39462 10.5466 3.67081 10.4582 3.90174 10.2942C4.13266 10.1301 4.30691 9.89828 4.40039 9.63086C4.50033 9.34769 4.61507 9.06996 4.74414 8.79883C4.8679 8.54325 4.909 8.25549 4.86175 7.97548C4.8145 7.69548 4.68124 7.43714 4.48047 7.23633L3.24805 6.00391C3.21167 5.96731 3.19125 5.91781 3.19125 5.86621C3.19125 5.81461 3.21167 5.76511 3.24805 5.72852L5.73242 3.24609C5.76902 3.20972 5.81852 3.1893 5.87012 3.1893C5.92172 3.1893 5.97122 3.20972 6.00781 3.24609L7.24023 4.47852C7.44105 4.67929 7.69939 4.81255 7.97939 4.8598C8.25939 4.90705 8.54716 4.86594 8.80273 4.74219C9.0745 4.61304 9.35288 4.4983 9.63672 4.39844C9.90273 4.30409 10.133 4.12972 10.296 3.89927C10.4589 3.66881 10.5466 3.39358 10.5469 3.11133V1.36719C10.5469 1.31539 10.5675 1.26571 10.6041 1.22908C10.6407 1.19245 10.6904 1.17188 10.7422 1.17188H14.2578C14.3096 1.17188 14.3593 1.19245 14.3959 1.22908C14.4325 1.26571 14.4531 1.31539 14.4531 1.36719V3.11133C14.4534 3.39462 14.5418 3.67081 14.7058 3.90174C14.8699 4.13266 15.1017 4.30691 15.3691 4.40039C15.6523 4.50033 15.93 4.61507 16.2012 4.74414C16.4567 4.8679 16.7445 4.909 17.0245 4.86175C17.3045 4.8145 17.5629 4.68124 17.7637 4.48047L18.9961 3.24805C19.0327 3.21167 19.0822 3.19125 19.1338 3.19125C19.1854 3.19125 19.2349 3.21167 19.2715 3.24805L21.7578 5.73438C21.7942 5.77097 21.8146 5.82047 21.8146 5.87207C21.8146 5.92367 21.7942 5.97317 21.7578 6.00977L20.5254 7.24219C20.3246 7.443 20.1914 7.70134 20.1441 7.98134C20.0969 8.26134 20.138 8.54911 20.2617 8.80469C20.3909 9.07646 20.5056 9.35484 20.6055 9.63867C20.6993 9.90573 20.8737 10.1371 21.1046 10.3008C21.3355 10.4645 21.6115 10.5526 21.8945 10.5527H23.6328C23.6846 10.5527 23.7343 10.5733 23.7709 10.6099C23.8075 10.6466 23.8281 10.6962 23.8281 10.748V14.2578Z" fill="white"/>
</g>
<defs>
<clipPath id="clip0_144_489">
<rect width="25" height="25" fill="white"/>
</clipPath>
</defs>
</svg>
