<svg width="30" height="31" viewBox="0 0 30 31" fill="none" xmlns="http://www.w3.org/2000/svg">
<path d="M28.5241 8.89296C27.6808 7.1811 26.4951 5.66384 25.0931 4.50698C23.0641 2.83116 20.6387 1.64547 18.0799 1.08686C15.5932 0.542665 13.0164 0.582308 10.627 1.213C8.45742 1.78242 6.52211 2.79512 4.88233 4.22227C3.13803 5.73952 1.81539 7.65321 0.94684 9.91287C0.420667 11.2824 0.110729 12.7492 0.0242349 14.2664C-0.0586554 15.744 0.0710857 17.236 0.413459 18.6992C0.755831 20.1624 1.29642 21.5608 2.02441 22.8474C2.6551 23.9646 3.41553 24.9773 4.28768 25.8638C4.29128 25.8674 4.29489 25.871 4.29849 25.8747C4.29849 25.8747 4.29849 25.8747 4.30209 25.8783C4.45706 26.0368 4.61564 26.1918 4.77781 26.3432C5.85539 27.3378 7.10234 28.1704 8.47904 28.8119C9.8197 29.4353 11.2541 29.8642 12.7425 30.0912C13.5281 30.2102 14.3174 30.2678 15.1031 30.2678C15.8022 30.2678 16.5014 30.221 17.1933 30.1273C18.6998 29.9219 20.1341 29.4966 21.4604 28.8623C22.783 28.228 24.0156 27.3775 25.122 26.336C26.1995 25.3196 27.1294 24.1484 27.8862 22.8474C28.6466 21.5499 29.2088 20.1624 29.5656 18.7245C29.9332 17.2505 30.0666 15.7584 29.9692 14.2952C29.8467 12.4284 29.3458 10.5652 28.5241 8.89296ZM4.48589 25.2836C3.72547 24.4763 3.05874 23.5681 2.49653 22.5735C1.79376 21.3301 1.27119 19.9822 0.939632 18.5695C0.608071 17.1532 0.481933 15.7152 0.564824 14.288C0.647714 12.8248 0.94684 11.4157 1.45139 10.1003C2.2875 7.9235 3.55969 6.0819 5.23911 4.62591C6.81763 3.25282 8.67726 2.27976 10.7675 1.73196C13.074 1.1265 15.5644 1.08325 17.9682 1.61303C20.3936 2.14641 22.6965 3.25642 24.639 4.82773C23.5651 5.88368 22.4911 6.94684 21.4171 8.0136C21.0676 7.66402 20.6603 7.3721 20.2062 7.16307C19.2728 6.73781 18.2385 6.62609 17.287 6.84233C16.4221 7.04054 15.6653 7.51266 15.1211 8.17938C14.3643 7.282 13.1497 6.76664 11.9244 6.84593C10.6522 6.92522 9.41246 7.62077 8.60518 8.70555C7.90602 9.64618 7.50959 10.8463 7.49877 12.0428C6.9726 11.9923 6.4212 12.1077 5.91305 12.3852C5.30759 12.7167 4.83908 13.2285 4.59762 13.8303C3.87683 15.6251 4.32372 16.9225 4.82827 17.6973C5.28596 18.4001 5.93828 18.883 6.43201 19.0416C6.38156 19.6723 6.56175 20.3715 6.94737 21.0346C7.14919 21.3806 7.40147 21.6977 7.67897 21.968C6.605 23.0708 5.54184 24.1772 4.48589 25.2836ZM22.174 12.4825C22.246 12.5509 22.3469 12.5762 22.4443 12.5473C22.6244 12.4897 23.2732 12.3996 24.0516 13.56C24.6282 14.4214 24.7472 15.5963 24.3543 16.5549C23.9615 17.5135 23.0533 18.2704 22.0406 18.4794C21.9325 18.501 21.8496 18.5875 21.8316 18.692C21.5505 20.1552 20.2747 21.4887 18.7286 21.932C17.2474 22.3572 15.5463 21.8851 14.494 20.7571C14.4291 20.685 14.3318 20.6562 14.2381 20.6778C14.1444 20.6994 14.0687 20.7679 14.0399 20.8616C13.8489 21.4671 13.1714 21.9248 12.7857 22.1446C12.119 22.523 10.5441 22.9483 8.85385 22.1554C8.72051 22.0941 8.59076 22.0148 8.46102 21.9247C9.29713 21.0598 10.1368 20.1949 10.9766 19.3299C11.182 19.4056 11.4018 19.4452 11.6253 19.4452C11.91 19.4452 12.1983 19.3804 12.4578 19.2506C12.9948 18.9767 13.3768 18.4362 13.4489 17.8379C13.4669 17.6901 13.3624 17.5532 13.2146 17.5352C13.0668 17.5172 12.9299 17.6217 12.9119 17.7694C12.8614 18.1839 12.5839 18.5767 12.2127 18.7677C11.9712 18.8902 11.6829 18.9299 11.4126 18.8866C12.328 17.946 13.2434 17.009 14.1624 16.0756L14.166 16.245C14.1768 16.8865 14.1913 17.6109 14.4868 18.2632C14.6418 18.6055 14.8868 18.9155 15.1787 19.1317C15.4815 19.3588 15.8202 19.4741 16.1554 19.4741C16.1878 19.4741 16.2167 19.4741 16.2491 19.4705C16.8726 19.4308 17.4708 18.9695 17.7664 18.2956C18.0258 17.7082 18.0475 17.0595 18.0511 16.4972C18.0547 15.2215 17.9466 13.9348 17.7339 12.6771C17.7231 12.6158 17.7123 12.5545 17.7015 12.4933C18.9268 11.2607 20.1558 10.0282 21.3883 8.80286C22.1163 9.76151 22.4262 11.0553 22.1019 12.2194C22.073 12.3095 22.1019 12.4104 22.174 12.4825ZM6.93656 18.656C6.88611 18.5947 6.81403 18.5587 6.73474 18.5551C6.48968 18.5479 5.78691 18.1911 5.27515 17.4018C4.84268 16.7351 4.45706 15.6107 5.09496 14.0322C5.44454 13.1672 6.36714 12.5726 7.25731 12.5726C7.40868 12.5726 7.56004 12.5906 7.7078 12.6266C7.79069 12.6482 7.87719 12.6266 7.94566 12.5726C8.01053 12.5185 8.04657 12.4356 8.04297 12.3491C7.9817 11.167 8.34209 9.95612 9.03405 9.02991C9.74762 8.07126 10.8396 7.45499 11.9532 7.38652C13.1245 7.31444 14.2778 7.86224 14.894 8.78484C14.9445 8.86052 15.0274 8.90377 15.1175 8.90377C15.2076 8.90377 15.2941 8.85692 15.3409 8.78124C15.8202 8.05685 16.5338 7.56671 17.4024 7.3685C18.2385 7.17749 19.1539 7.2784 19.9756 7.65321C20.3684 7.83341 20.7252 8.08568 21.0279 8.38841C19.8638 9.54527 18.7034 10.7093 17.5429 11.8734C17.4708 11.6644 17.3735 11.4626 17.2366 11.2788C16.8942 10.8211 16.1878 10.5363 15.5175 10.5832C14.9733 10.6228 14.5517 10.8679 14.3318 11.2752C14.0723 11.7545 14.0831 12.3167 14.0904 12.7672L14.1408 15.3115C13.0452 16.4252 11.9532 17.5424 10.8648 18.6596C10.3459 18.292 10.0648 17.5496 10.0035 16.3927C9.94584 15.3296 9.98188 14.252 10.1044 13.196C10.1801 12.5437 10.3243 11.8302 10.8324 11.4842C11.1748 11.2499 11.6757 11.2427 12.0253 11.4662C12.3749 11.6896 12.5731 12.1509 12.501 12.5582C12.4758 12.7059 12.5731 12.8465 12.7209 12.8717C12.8686 12.8969 13.0092 12.7996 13.0344 12.6519C13.1461 12.0284 12.8506 11.3508 12.3172 11.0085C11.7838 10.6661 11.0486 10.6769 10.5261 11.0337C10.1657 11.2824 9.726 11.7473 9.56743 13.1312C9.44129 14.2196 9.40886 15.326 9.46652 16.4216C9.53499 17.7082 9.87016 18.5731 10.4864 19.0524C9.67194 19.8921 8.85745 20.7319 8.04297 21.5716C7.32579 20.8724 6.81043 19.8056 6.98702 18.8722C7.00504 18.7965 6.98341 18.7173 6.93656 18.656ZM14.8111 11.5346C14.9841 11.2139 15.3553 11.1418 15.5572 11.1274C16.0473 11.0914 16.5699 11.2932 16.8041 11.6067C16.9555 11.8085 17.0456 12.0572 17.1068 12.3167C16.2924 13.1348 15.4815 13.9565 14.6706 14.7782L14.6309 12.76C14.6273 12.3527 14.6201 11.8914 14.8111 11.5346ZM17.233 12.9582C17.4168 14.1223 17.5105 15.3115 17.5105 16.49C17.5105 16.9982 17.4889 17.582 17.2726 18.0722C17.0564 18.5623 16.6383 18.8975 16.2131 18.9263C15.6581 18.9623 15.1823 18.4902 14.9769 18.0361C14.7282 17.4847 14.7174 16.8468 14.703 16.2305L14.6886 15.5314C15.5355 14.67 16.3825 13.8159 17.233 12.9582ZM29.0466 18.5875C28.7043 19.975 28.1565 21.3121 27.4249 22.5662C26.6933 23.8204 25.7923 24.952 24.7544 25.9323C23.6912 26.9378 22.5055 27.7559 21.2297 28.365C19.9539 28.974 18.5736 29.3849 17.1249 29.5831C15.7085 29.7777 14.2633 29.7633 12.829 29.5471C11.391 29.3308 10.0071 28.9164 8.7133 28.3145C7.38705 27.6982 6.18695 26.8982 5.14902 25.9395C5.05531 25.853 4.96161 25.7629 4.86791 25.6692C5.93467 24.5484 7.00864 23.4312 8.08622 22.314C8.2592 22.4437 8.443 22.5518 8.6268 22.6383C9.32957 22.9699 10.0936 23.1393 10.854 23.1393C10.9694 23.1393 11.0847 23.1357 11.2 23.1285C11.8811 23.0816 12.5551 22.8942 13.056 22.6095C13.784 22.195 14.1768 21.7626 14.3859 21.4022C15.2616 22.1878 16.4401 22.6239 17.6186 22.6239C18.0439 22.6239 18.4691 22.5662 18.88 22.4473C20.5558 21.9644 21.9469 20.548 22.3289 18.9623C23.457 18.6668 24.4156 17.8343 24.8589 16.7531C25.3238 15.6143 25.1868 14.2736 24.5021 13.2537C24.2282 12.8429 23.5579 11.9923 22.7109 11.9671C22.9236 10.7274 22.5452 9.40832 21.7703 8.41724C22.8623 7.33246 23.9543 6.25128 25.0463 5.17731C26.2608 6.25128 27.2915 7.60996 28.0375 9.13082C28.8304 10.7418 29.3133 12.5365 29.4323 14.3241C29.5296 15.7296 29.3962 17.1676 29.0466 18.5875ZM22.1595 22.5662C21.5649 22.5302 21.0387 22.7609 20.7576 23.1897C20.4224 23.6979 20.4477 24.4006 20.8225 24.9016C21.1216 25.298 21.619 25.5323 22.1271 25.5323C22.2244 25.5323 22.3217 25.5251 22.4154 25.5071C22.8731 25.4242 23.284 25.1431 23.5074 24.7538C23.7489 24.3394 23.7705 23.824 23.5651 23.4096C23.3236 22.9266 22.7866 22.6059 22.1595 22.5662ZM23.0389 24.4835C22.8911 24.7358 22.6208 24.9196 22.3145 24.9773C21.9217 25.0494 21.482 24.8872 21.2514 24.5772C21.0135 24.2637 20.9955 23.806 21.2045 23.4889C21.3667 23.2438 21.673 23.1068 22.037 23.1068C22.0658 23.1068 22.0947 23.1068 22.1235 23.1104C22.5524 23.1357 22.9272 23.3483 23.0785 23.651C23.2047 23.8997 23.1903 24.2277 23.0389 24.4835ZM20.0765 20.0795C20.0909 20.2273 19.9828 20.3606 19.835 20.3751C19.6981 20.3895 19.5359 20.3931 19.3233 20.3931C19.1719 20.3931 18.9953 20.3895 18.7863 20.3895L18.6169 20.3859C18.5088 20.3859 18.4079 20.3174 18.3682 20.2165C18.3286 20.1156 18.3538 19.9967 18.4331 19.921C18.5196 19.8381 18.6241 19.7516 18.7358 19.6579C18.9629 19.4705 19.3413 19.1533 19.3773 18.9803C19.4134 18.8218 19.3701 18.638 19.2872 18.5803C19.1755 18.501 18.9701 18.5515 18.88 18.6776C18.7935 18.8001 18.6241 18.829 18.5016 18.7389C18.379 18.6524 18.3502 18.483 18.4403 18.3605C18.7034 17.9893 19.2476 17.8848 19.6008 18.137C19.9071 18.3533 19.972 18.7857 19.9035 19.0957C19.8458 19.3624 19.6044 19.6182 19.3377 19.8525C19.5251 19.8525 19.6656 19.8489 19.781 19.8381C19.9287 19.8237 20.0621 19.9318 20.0765 20.0795Z" fill="black"/>
</svg>
