<svg width="260" height="207" viewBox="0 0 260 207" fill="none" xmlns="http://www.w3.org/2000/svg">
<path d="M168.752 207C166.975 207.003 165.203 206.824 163.464 206.464L10.0433 175.386C7.79895 174.912 5.7258 173.839 4.04515 172.282C2.3645 170.724 1.13945 168.741 0.500782 166.543C-0.137884 164.345 -0.166191 162.016 0.418885 159.803C1.00396 157.591 2.18045 155.579 3.82276 153.981L91.7584 69.376C96.1656 65.1606 101.879 62.565 107.96 62.0154L246.197 49.6349C248.469 49.4309 250.754 49.8426 252.811 50.8265C254.868 51.8104 256.62 53.33 257.882 55.2249C259.145 57.1197 259.871 59.3194 259.984 61.5918C260.098 63.8642 259.593 66.1249 258.525 68.1351L192.531 192.758C190.227 197.053 186.799 200.645 182.612 203.153C178.425 205.661 173.635 206.99 168.752 207ZM247.385 55.2752H246.706L108.441 67.6557C103.634 68.0884 99.1181 70.1369 95.6321 73.4652L7.69645 158.07C6.80371 158.959 6.16774 160.071 5.85555 161.29C5.54335 162.508 5.56648 163.789 5.9225 164.995C6.27852 166.202 6.95425 167.291 7.87851 168.147C8.80277 169.002 9.94134 169.594 11.1743 169.858L164.595 200.88C169.083 201.797 173.748 201.244 177.895 199.303C182.042 197.361 185.45 194.136 187.611 190.107L253.549 65.4842C254.099 64.4228 254.368 63.2384 254.33 62.0439C254.291 60.8493 253.947 59.6846 253.328 58.6608C252.71 57.637 251.839 56.7882 250.799 56.1955C249.758 55.6028 248.583 55.286 247.385 55.2752Z" fill="#D3D3D3"/>
<path d="M23.6154 178.093C23.2433 178.096 22.8744 178.024 22.5299 177.884C22.1854 177.744 21.8721 177.537 21.6079 177.276C21.0812 176.747 20.7856 176.032 20.7856 175.287C20.7856 174.542 21.0812 173.828 21.6079 173.299L133.351 60.4927C133.613 60.2298 133.924 60.0208 134.267 59.8778C134.61 59.7348 134.977 59.6605 135.349 59.6592C135.72 59.6579 136.088 59.7296 136.432 59.8702C136.776 60.0108 137.088 60.2175 137.352 60.4786C137.616 60.7397 137.825 61.05 137.969 61.3919C138.112 61.7337 138.186 62.1004 138.188 62.471C138.189 62.8415 138.117 63.2087 137.976 63.5516C137.835 63.8944 137.628 64.2062 137.366 64.4691L25.6512 177.276C25.3836 177.54 25.0657 177.749 24.7161 177.89C24.3665 178.03 23.9923 178.099 23.6154 178.093Z" fill="#D3D3D3"/>
<path d="M65.4342 186.554C64.7735 186.555 64.1333 186.325 63.6246 185.905C63.3341 185.672 63.0926 185.385 62.914 185.058C62.7354 184.732 62.6232 184.374 62.5837 184.005C62.5443 183.635 62.5785 183.262 62.6844 182.905C62.7902 182.549 62.9656 182.217 63.2005 181.929L166.518 57.6158C166.756 57.3091 167.055 57.0548 167.397 56.8688C167.738 56.6827 168.114 56.569 168.502 56.5346C168.889 56.5001 169.28 56.5458 169.649 56.6688C170.017 56.7918 170.357 56.9893 170.646 57.2492C170.932 57.4859 171.169 57.7767 171.342 58.1048C171.516 58.4329 171.623 58.7919 171.657 59.1613C171.691 59.5307 171.652 59.9031 171.541 60.2574C171.431 60.6116 171.252 60.9406 171.013 61.2256L67.6114 185.538C67.3455 185.857 67.0126 186.113 66.6363 186.288C66.26 186.464 65.8496 186.554 65.4342 186.554Z" fill="#D3D3D3"/>
<path d="M117.065 197.016C116.488 197.015 115.926 196.838 115.453 196.509C114.839 196.082 114.419 195.429 114.287 194.694C114.154 193.96 114.32 193.202 114.746 192.589L211.928 53.7238C212.141 53.4201 212.412 53.1614 212.726 52.9623C213.04 52.7632 213.39 52.6277 213.756 52.5636C214.123 52.4994 214.498 52.5078 214.861 52.5884C215.224 52.6689 215.567 52.8199 215.872 53.0329C216.176 53.2458 216.436 53.5165 216.635 53.8295C216.835 54.1424 216.971 54.4915 217.035 54.8569C217.1 55.2222 217.091 55.5965 217.01 55.9586C216.93 56.3207 216.778 56.6633 216.565 56.967L119.383 195.804C119.123 196.177 118.777 196.483 118.373 196.694C117.969 196.905 117.52 197.016 117.065 197.016Z" fill="#D3D3D3"/>
<path d="M78.1579 89.1172C77.408 89.1359 76.6813 88.8568 76.1378 88.3411C75.5943 87.8254 75.2784 87.1155 75.2597 86.3676C75.2409 85.6196 75.5208 84.8949 76.0379 84.3528C76.5549 83.8107 77.2666 83.4956 78.0165 83.4769L250.891 73.3807C251.636 73.3422 252.367 73.5993 252.923 74.0959C253.479 74.5926 253.816 75.2884 253.859 76.0317C253.861 76.7512 253.586 77.444 253.092 77.9683C252.598 78.4926 251.922 78.8087 251.202 78.8519L78.3275 89.1172H78.1579Z" fill="#D3D3D3"/>
<path d="M233.077 113.004H53.3607C52.6108 113.004 51.8916 112.707 51.3614 112.178C50.8311 111.649 50.5332 110.932 50.5332 110.184C50.5332 109.436 50.8311 108.719 51.3614 108.19C51.8916 107.661 52.6108 107.364 53.3607 107.364H233.077C233.827 107.364 234.546 107.661 235.077 108.19C235.607 108.719 235.905 109.436 235.905 110.184C235.905 110.932 235.607 111.649 235.077 112.178C234.546 112.707 233.827 113.004 233.077 113.004Z" fill="#D3D3D3"/>
<path d="M209.553 157.393H209.355L20.7879 144.167C20.4166 144.141 20.054 144.042 19.7209 143.877C19.3878 143.711 19.0907 143.481 18.8465 143.201C18.6023 142.921 18.4159 142.596 18.2978 142.243C18.1797 141.891 18.1323 141.52 18.1583 141.149C18.1843 140.779 18.2832 140.417 18.4493 140.085C18.6154 139.753 18.8455 139.456 19.1264 139.213C19.4073 138.969 19.7336 138.783 20.0866 138.666C20.4396 138.548 20.8124 138.501 21.1837 138.526L209.835 151.725C210.207 151.738 210.572 151.824 210.91 151.977C211.248 152.131 211.552 152.35 211.806 152.621C212.059 152.892 212.256 153.21 212.387 153.557C212.517 153.904 212.577 154.273 212.564 154.644C212.551 155.014 212.465 155.378 212.311 155.715C212.157 156.053 211.938 156.356 211.666 156.609C211.394 156.862 211.075 157.058 210.727 157.188C210.379 157.318 210.009 157.378 209.637 157.365L209.553 157.393Z" fill="#D3D3D3"/>
<path d="M82.9931 84.4357C82.3813 84.4357 81.786 84.2378 81.2966 83.8716C77.1369 80.7525 73.8455 76.6249 71.7347 71.8805C69.6239 67.1361 68.7638 61.9324 69.2359 56.7632C69.7081 51.5941 71.4969 46.6311 74.4325 42.3453C77.3681 38.0594 81.3532 34.593 86.0095 32.2749C90.6657 29.9569 95.8387 28.8641 101.037 29.1004C106.236 29.3367 111.288 30.8942 115.713 33.6251C120.139 36.356 123.791 40.1696 126.324 44.704C128.857 49.2384 130.185 54.3431 130.184 59.5336C130.191 60.8643 130.096 62.1936 129.902 63.5101C129.803 64.25 129.414 64.9209 128.821 65.3755C128.227 65.8301 127.477 66.0315 126.735 65.9354C126.365 65.8869 126.008 65.7657 125.685 65.579C125.362 65.3922 125.079 65.1435 124.853 64.8473C124.627 64.551 124.462 64.213 124.368 63.8528C124.273 63.4926 124.251 63.1173 124.303 62.7486C124.45 61.6831 124.525 60.6091 124.529 59.5336C124.642 56.206 124.082 52.8899 122.883 49.7826C121.684 46.6754 119.87 43.8405 117.55 41.4469C115.229 39.0532 112.45 37.1497 109.377 35.8497C106.303 34.5497 102.999 33.8797 99.6613 33.8797C96.3231 33.8797 93.0191 34.5497 89.9459 35.8497C86.8727 37.1497 84.0932 39.0532 81.7729 41.4469C79.4526 43.8405 77.6389 46.6754 76.4398 49.7826C75.2407 52.8899 74.6808 56.206 74.7933 59.5336C74.7845 63.3661 75.6748 67.1474 77.3932 70.5753C79.1116 74.0031 81.6103 76.9823 84.6896 79.2748C85.2895 79.7235 85.6861 80.3916 85.7922 81.1321C85.8982 81.8725 85.705 82.6246 85.2551 83.223C85.0008 83.5889 84.6632 83.8895 84.2701 84.1002C83.8769 84.311 83.4393 84.426 82.9931 84.4357Z" fill="#D3D3D3"/>
<path d="M108.441 25.4661C107.894 25.4625 107.359 25.3008 106.903 25.0004C106.446 24.7001 106.087 24.2741 105.868 23.774L99.7603 10.1526L93.8225 23.8586C93.5001 24.543 92.9182 25.0715 92.205 25.3281C91.4918 25.5846 90.7057 25.548 90.0195 25.2264C89.3333 24.9047 88.8034 24.3244 88.5462 23.6131C88.289 22.9017 88.3257 22.1176 88.6482 21.4333L97.1307 1.69212C97.3495 1.19204 97.709 0.766012 98.1658 0.465672C98.6225 0.165331 99.1567 0.00357695 99.7037 1.71055e-05C100.256 -0.00189955 100.796 0.157293 101.258 0.457966C101.72 0.75864 102.084 1.18765 102.305 1.69212L110.788 21.4333C111.081 22.1179 111.091 22.8906 110.816 23.5827C110.54 24.2749 110.002 24.8302 109.317 25.1277C109.048 25.2926 108.751 25.4073 108.441 25.4661Z" fill="#D3D3D3"/>
<path d="M67.5832 42.3023C67.0169 42.3028 66.4635 42.1338 65.9947 41.817C65.5259 41.5002 65.1632 41.0503 64.9537 40.5256L57.0366 20.5588C56.8213 20.0603 56.7548 19.5105 56.8451 18.9752C56.9354 18.44 57.1786 17.9421 57.5456 17.5413C57.9377 17.1508 58.4361 16.8839 58.979 16.7736C59.5219 16.6632 60.0853 16.7145 60.5993 16.9208L80.5898 24.8173C81.2872 25.094 81.8458 25.6358 82.1428 26.3233C82.4397 27.0109 82.4507 27.7879 82.1732 28.4835C81.8957 29.1791 81.3526 29.7363 80.6633 30.0324C79.9739 30.3286 79.1948 30.3395 78.4974 30.0628L64.5861 24.5635L70.2128 38.3541C70.3506 38.6984 70.4189 39.0665 70.4138 39.4373C70.4087 39.808 70.3304 40.1741 70.1834 40.5147C70.0363 40.8552 69.8233 41.1635 69.5567 41.4218C69.2901 41.6801 68.975 41.8835 68.6294 42.0203C68.3022 42.1807 67.9469 42.2764 67.5832 42.3023Z" fill="#D3D3D3"/>
<path d="M62.7763 70.8709C62.3979 70.8638 62.0241 70.7873 61.6736 70.6453L41.881 62.1848C41.3709 61.9681 40.936 61.6066 40.6303 61.1452C40.3246 60.6839 40.1616 60.1432 40.1616 59.5902C40.1616 59.0372 40.3246 58.4965 40.6303 58.0352C40.936 57.5739 41.3709 57.2124 41.881 56.9957L61.6736 48.5352C62.0152 48.3889 62.3823 48.3111 62.7541 48.3064C63.1258 48.3016 63.4948 48.3699 63.8401 48.5074C64.1854 48.6449 64.5001 48.8489 64.7663 49.1077C65.0326 49.3665 65.2451 49.675 65.3917 50.0158C65.5384 50.3565 65.6164 50.7227 65.6211 51.0935C65.6259 51.4642 65.5574 51.8323 65.4196 52.1767C65.2817 52.521 65.0772 52.8349 64.8178 53.1005C64.5583 53.366 64.2489 53.578 63.9073 53.7243L50.1656 59.6466L63.9073 65.569C64.5087 65.8245 65.0029 66.2799 65.3055 66.8578C65.6082 67.4358 65.7008 68.1005 65.5674 68.7388C65.4341 69.3771 65.0831 69.9496 64.5742 70.3589C64.0654 70.7682 63.43 70.989 62.7763 70.9837V70.8709Z" fill="#D3D3D3"/>
<path d="M59.6661 102.372C59.292 102.37 58.9219 102.295 58.5773 102.149C58.2327 102.004 57.9204 101.792 57.6585 101.526C57.2726 101.137 57.0083 100.645 56.8979 100.109C56.7875 99.5734 56.8356 99.0172 57.0365 98.5082L64.9535 78.5415C65.231 77.8459 65.7741 77.2887 66.4635 76.9925C67.1528 76.6963 67.9319 76.6854 68.6293 76.9622C69.3267 77.2389 69.8853 77.7806 70.1823 78.4682C70.4792 79.1557 70.4902 79.9328 70.2127 80.6284L64.5577 94.5318L66.65 93.7139C67.3474 93.4222 68.1325 93.4188 68.8324 93.7044C69.5324 93.99 70.0899 94.5412 70.3823 95.2368C70.6748 95.9324 70.6782 96.7154 70.3919 97.4135C70.1056 98.1116 69.5529 98.6677 68.8555 98.9594L60.7123 102.174C60.3768 102.297 60.0233 102.364 59.6661 102.372Z" fill="#D3D3D3"/>
<path d="M153.681 63.5663C153.129 63.5682 152.589 63.409 152.127 63.1083C151.664 62.8077 151.3 62.3786 151.08 61.8742C150.85 61.341 150.791 60.7501 150.91 60.1821L135.67 53.6111C135.299 53.4865 134.959 53.2867 134.67 53.0242C134.381 52.7617 134.149 52.4423 133.99 52.0862C133.831 51.73 133.748 51.3449 133.746 50.955C133.744 50.5651 133.822 50.179 133.977 49.8211C134.132 49.4631 134.36 49.1411 134.646 48.8753C134.932 48.6096 135.27 48.4059 135.639 48.277C136.008 48.1482 136.4 48.0971 136.79 48.1269C137.179 48.1567 137.559 48.2668 137.904 48.4502L157.696 56.9107C158.206 57.1274 158.641 57.4889 158.947 57.9502C159.252 58.4115 159.415 58.9523 159.415 59.5052C159.415 60.0582 159.252 60.599 158.947 61.0603C158.641 61.5216 158.206 61.8831 157.696 62.0998L154.869 63.3125C154.499 63.4904 154.092 63.5774 153.681 63.5663Z" fill="#D3D3D3"/>
<path d="M131.966 42.3028C131.607 42.3081 131.251 42.2409 130.92 42.1054C130.574 41.9686 130.259 41.7653 129.992 41.5069C129.726 41.2486 129.513 40.9403 129.366 40.5998C129.218 40.2593 129.14 39.8932 129.135 39.5224C129.13 39.1517 129.198 38.7836 129.336 38.4392L134.991 24.564L121.051 30.0633C120.362 30.2993 119.608 30.2608 118.947 29.9558C118.285 29.6508 117.768 29.1028 117.501 28.4263C117.235 27.7497 117.241 26.9967 117.518 26.3244C117.795 25.6521 118.321 25.1124 118.987 24.8178L138.978 16.9213C139.489 16.7203 140.047 16.6721 140.585 16.7825C141.123 16.8928 141.617 17.1571 142.007 17.5429C142.397 17.9288 142.666 18.4195 142.781 18.9552C142.895 19.4908 142.851 20.0483 142.654 20.5594L134.737 40.5261C134.519 41.0739 134.134 41.5398 133.637 41.8585C133.14 42.1772 132.556 42.3325 131.966 42.3028Z" fill="#D3D3D3"/>
</svg>
