<svg width="30" height="21" viewBox="0 0 30 21" fill="none" xmlns="http://www.w3.org/2000/svg">
<path d="M16.8067 14.7106C16.6229 14.7143 16.4692 14.7181 16.3304 14.7181C16.0266 14.7256 15.7904 14.7293 15.4603 14.7181C15.5053 14.4368 15.6066 13.8518 15.8316 12.6479C15.8766 12.4154 15.7529 12.1904 15.5353 12.1042C15.3178 12.0141 15.0741 12.0891 14.9428 12.2842C14.3428 13.1805 13.2477 14.8081 12.6477 15.6481C12.5389 15.7981 12.5277 15.9969 12.6139 16.1619C12.7002 16.3269 12.8689 16.4282 13.0564 16.4244C13.214 16.4244 13.3565 16.4169 13.4952 16.4132C13.694 16.4057 13.8852 16.4019 14.1103 16.4019C13.9715 16.7394 13.8252 17.1257 13.6752 17.5232C13.5477 17.8645 13.4127 18.217 13.2665 18.5771C13.1764 18.8021 13.259 19.0458 13.4615 19.1733C13.544 19.2258 13.634 19.2483 13.724 19.2483C13.8552 19.2483 13.9865 19.1921 14.084 19.0871C15.1978 17.8645 15.9741 16.9607 17.1929 15.5094C17.3167 15.3594 17.343 15.1606 17.2605 14.9843C17.1742 14.8156 17.0017 14.7068 16.8067 14.7106ZM13.9265 18.427C14.0203 18.187 14.1065 17.9545 14.1965 17.7258C14.4065 17.1745 14.6053 16.6494 14.7853 16.2482C14.8228 16.1619 14.8153 16.0644 14.7665 15.9856C14.7178 15.9069 14.6315 15.8581 14.5378 15.8544C14.3615 15.8469 14.2078 15.8469 14.0653 15.8469C13.844 15.8469 13.6565 15.8506 13.4727 15.8581C13.379 15.8619 13.2852 15.8619 13.184 15.8656C13.7352 15.0818 14.6203 13.773 15.2128 12.8917C15.1228 13.3755 15.0478 13.7843 14.9916 14.1068C14.9466 14.3618 14.9128 14.5606 14.8941 14.6993C14.8528 14.9581 14.8416 15.0556 14.9241 15.1643C14.9728 15.2281 15.0516 15.2693 15.1303 15.2731C15.6516 15.3031 15.9404 15.2956 16.3379 15.2843C16.4354 15.2806 16.5367 15.2806 16.6529 15.2768C15.5991 16.5369 14.8716 17.3845 13.9265 18.427ZM28.1399 8.78894C29.3437 10.8028 29.9888 13.1767 30 15.6594C30 15.8131 29.8762 15.9406 29.7187 15.9406C29.565 15.9406 29.4375 15.8169 29.4375 15.6594C29.4262 13.278 28.8112 11.0016 27.6561 9.07396C27.3786 8.60893 27.0711 8.1514 26.7448 7.71638C26.651 7.59262 26.6773 7.41636 26.8011 7.3226C26.9248 7.22885 27.1011 7.2551 27.1948 7.37886C27.5323 7.83263 27.8474 8.30516 28.1399 8.78894ZM10.135 2.16228C6.08476 3.41111 3.00582 6.30629 1.46822 10.3115C0.819429 11.9954 0.51941 13.8068 0.568163 15.6931C0.571913 15.8469 0.448156 15.9781 0.294396 15.9819C0.290646 15.9819 0.290646 15.9819 0.286896 15.9819C0.136886 15.9819 0.00937832 15.8619 0.00562809 15.7081C-0.0468752 13.7468 0.268144 11.8641 0.943187 10.109C2.54454 5.93877 5.75099 2.92733 9.97 1.62225C14.5715 0.200908 19.7581 1.04471 23.8496 3.87614C23.9771 3.96614 24.0109 4.13865 23.9209 4.26616C23.8309 4.39367 23.6584 4.42742 23.5308 4.33742C19.5819 1.60725 14.5753 0.789695 10.135 2.16228ZM27.8286 3.97364C27.9074 3.86489 27.8999 3.71488 27.8099 3.61737C27.7199 3.51987 27.5698 3.49736 27.4573 3.56862C25.5335 4.74244 23.4296 6.03252 21.3145 7.32635C19.4431 8.47392 17.5642 9.62525 15.7979 10.7091C15.6554 10.6828 15.5166 10.6603 15.3703 10.6453C14.5903 10.5628 13.8065 10.6791 13.0452 10.9828C11.1588 11.7441 9.84999 13.6943 9.85749 15.7306C9.86874 17.7633 11.1963 19.7021 13.0864 20.4484C13.664 20.6772 14.2828 20.7859 14.8978 20.7859C16.2966 20.7859 17.6992 20.2234 18.663 19.1921C19.5518 18.247 20.0356 16.942 19.9644 15.7119C19.9494 15.4569 19.9156 15.2018 19.8669 14.9543C21.0369 13.3567 22.252 11.6654 23.4296 10.0303C24.8922 8.0014 26.3998 5.90501 27.8286 3.97364ZM18.258 18.8058C17.6655 19.4396 16.8404 19.9009 15.9441 20.1034C15.0478 20.3059 14.1065 20.2422 13.2965 19.9234C12.4864 19.6046 11.7551 19.0121 11.2338 18.2545C10.7125 17.4932 10.4238 16.5969 10.42 15.7306C10.4163 14.8606 10.6975 13.9605 11.2113 13.1992C11.7251 12.4342 12.4527 11.8341 13.2552 11.5079C14.084 11.1741 14.9353 11.0991 15.7529 11.2753C15.7754 11.2829 15.7941 11.2866 15.8166 11.2903C16.2779 11.3991 16.7242 11.5866 17.1479 11.8529C18.243 12.5467 19.0118 13.668 19.2931 14.9468C19.2931 14.9506 19.2931 14.9543 19.2968 14.9581C19.3531 15.2131 19.3906 15.4756 19.4056 15.7419C19.4693 16.8257 19.0418 17.9695 18.258 18.8058ZM19.6831 14.253C19.2856 13.068 18.5018 12.0441 17.448 11.3766C17.1554 11.1891 16.8479 11.0391 16.5329 10.9191C18.1718 9.91776 19.8931 8.8602 21.6107 7.80638C23.2833 6.78257 24.9522 5.75875 26.5273 4.79494C25.3572 6.39254 24.1496 8.0689 22.9796 9.70025C21.8882 11.2078 20.7707 12.7642 19.6831 14.253ZM14.7778 2.4548L14.7966 4.52868C14.7966 4.68244 14.6728 4.80995 14.519 4.8137C14.519 4.8137 14.519 4.8137 14.5153 4.8137C14.3615 4.8137 14.234 4.68994 14.234 4.53618L14.2153 2.4623C14.2153 2.30854 14.339 2.18103 14.4928 2.17728C14.4928 2.17728 14.4928 2.17728 14.4965 2.17728C14.6503 2.17728 14.7778 2.30104 14.7778 2.4548ZM7.01107 7.86264C7.12357 7.97139 7.12357 8.14765 7.01482 8.26016C6.95856 8.31641 6.88731 8.34267 6.8123 8.34267C6.74105 8.34267 6.66979 8.31641 6.61354 8.26391L5.1322 6.81257C5.01969 6.70381 5.01969 6.52755 5.12845 6.41505C5.2372 6.30254 5.41347 6.30254 5.52597 6.4113L7.01107 7.86264ZM4.14589 16.0044C4.14589 16.1582 4.02213 16.2857 3.86837 16.2894L1.79449 16.3082C1.79449 16.3082 1.79449 16.3082 1.79074 16.3082C1.63698 16.3082 1.50947 16.1844 1.50947 16.0306C1.50947 15.8769 1.63323 15.7494 1.78699 15.7456L3.86087 15.7269C3.86087 15.7269 3.86087 15.7269 3.86462 15.7269C4.01838 15.7269 4.14589 15.8506 4.14589 16.0044ZM28.4174 16.0044C28.4174 16.1582 28.2936 16.2857 28.1399 16.2894L26.066 16.3082C26.066 16.3082 26.066 16.3082 26.0623 16.3082C25.9085 16.3082 25.781 16.1844 25.781 16.0306C25.781 15.8769 25.9047 15.7494 26.0585 15.7456L28.1324 15.7269C28.1324 15.7269 28.1324 15.7269 28.1361 15.7269C28.2899 15.7269 28.4137 15.8506 28.4174 16.0044Z" fill="black"/>
</svg>
