<svg width="391" height="214" viewBox="0 0 391 214" fill="none" xmlns="http://www.w3.org/2000/svg">
<path d="M385.15 0.840576H141.128C103.712 0.883342 67.8401 15.7659 41.3827 42.2233C14.9253 68.6807 0.0427654 104.552 0 141.969V207.496C0.00197646 209.046 0.619274 210.532 1.71627 211.627C2.81326 212.723 4.30023 213.338 5.85046 213.338H249.872C287.288 213.296 323.159 198.415 349.617 171.959C376.074 145.502 390.957 109.631 391 72.2157V6.69104C390.999 5.1396 390.383 3.65189 389.286 2.55486C388.189 1.45783 386.701 0.841235 385.15 0.840576ZM379.299 72.2181C379.261 106.533 365.613 139.432 341.349 163.697C317.085 187.962 284.187 201.611 249.872 201.65H11.7009V141.969C11.7374 107.653 25.3848 74.7522 49.6489 50.4858C73.9129 26.2194 106.812 12.5689 141.128 12.5291H379.299V72.2181Z" fill="#84B524" fill-opacity="0.15"/>
<path d="M131.952 75.0331C132.719 75.0331 133.478 74.882 134.187 74.5885C134.896 74.2949 135.54 73.8646 136.082 73.3221C136.625 72.7797 137.055 72.1357 137.349 71.4269C137.642 70.7182 137.793 69.9585 137.793 69.1914C137.793 68.4242 137.642 67.6646 137.349 66.9558C137.055 66.2471 136.625 65.6031 136.082 65.0606C135.54 64.5182 134.896 64.0879 134.187 63.7943C133.478 63.5007 132.719 63.3496 131.952 63.3496H75.4619C74.694 63.3485 73.9334 63.4987 73.2237 63.7918C72.5139 64.0849 71.8689 64.515 71.3255 65.0575C70.7822 65.6001 70.3511 66.2445 70.057 66.9538C69.7628 67.6631 69.6114 68.4235 69.6115 69.1914V154.352C69.6124 155.903 70.2291 157.391 71.3261 158.488C72.4231 159.585 73.9106 160.201 75.4619 160.202H131.952C133.501 160.202 134.987 159.587 136.082 158.491C137.178 157.396 137.793 155.91 137.793 154.36C137.793 152.811 137.178 151.325 136.082 150.23C134.987 149.134 133.501 148.519 131.952 148.519H81.3124V117.613H120.603C122.152 117.613 123.638 116.998 124.733 115.902C125.829 114.807 126.444 113.321 126.444 111.772C126.444 110.222 125.829 108.736 124.733 107.641C123.638 106.545 122.152 105.93 120.603 105.93H81.3124V75.0331H131.952Z" fill="#84B524" fill-opacity="0.15"/>
<path d="M186.949 163.671C195.129 163.599 203.157 161.448 210.278 157.421C217.4 153.395 223.381 147.624 227.659 140.651C228.488 139.341 228.763 137.755 228.423 136.243C228.082 134.73 227.155 133.415 225.845 132.586C224.535 131.757 222.949 131.482 221.436 131.823C219.924 132.163 218.608 133.09 217.779 134.4C214.551 139.704 210.028 144.1 204.636 147.176C199.243 150.253 193.157 151.908 186.949 151.988C176.68 151.575 166.993 147.113 160.006 139.577C153.018 132.042 149.299 122.046 149.661 111.775C149.3 101.505 153.02 91.51 160.007 83.9746C166.994 76.439 176.681 71.9763 186.949 71.5618C193.157 71.6417 199.243 73.2976 204.636 76.3741C210.029 79.4507 214.551 83.847 217.779 89.1504C218.608 90.4606 219.924 91.3878 221.436 91.7282C222.949 92.0685 224.535 91.794 225.845 90.9651C227.155 90.1362 228.082 88.8208 228.423 87.3083C228.763 85.7957 228.488 84.2099 227.659 82.8998C223.381 75.9259 217.401 70.154 210.279 66.1261C203.158 62.0982 195.13 59.9466 186.949 59.8733C173.579 60.2863 160.917 65.9798 151.736 75.7074C142.554 85.4349 137.601 98.404 137.96 111.775C137.602 125.146 142.557 138.113 151.738 147.839C160.919 157.566 173.58 163.258 186.949 163.671Z" fill="#84B524" fill-opacity="0.15"/>
<path d="M283.98 163.671C297.35 163.258 310.012 157.565 319.193 147.837C328.375 138.11 333.328 125.141 332.969 111.769C333.328 98.3979 328.375 85.4288 319.193 75.7013C310.012 65.9737 297.35 60.2802 283.98 59.8672C270.61 60.2802 257.949 65.9737 248.767 75.7013C239.586 85.4288 234.632 98.3979 234.992 111.769C234.632 125.141 239.586 138.11 248.767 147.837C257.949 157.565 270.61 163.258 283.98 163.671ZM283.98 71.5557C294.248 71.9702 303.935 76.433 310.922 83.9685C317.909 91.504 321.629 101.499 321.268 111.769C321.63 122.04 317.911 132.036 310.923 139.571C303.936 147.107 294.249 151.569 283.98 151.982C273.712 151.569 264.025 147.107 257.037 139.571C250.05 132.036 246.33 122.04 246.692 111.769C246.332 101.499 250.051 91.504 257.039 83.9685C264.026 76.433 273.712 71.9702 283.98 71.5557Z" fill="#84B524" fill-opacity="0.15"/>
</svg>
