<svg width="22" height="32" viewBox="0 0 22 32" fill="none" xmlns="http://www.w3.org/2000/svg">
<path d="M10.5996 26.5308C10.7331 26.5753 10.8665 26.5975 11 26.5975C11.1335 26.5975 11.2669 26.5864 11.3893 26.5308C11.5005 26.4974 22 22.7826 22 11.4044C22 5.35385 17.0617 0.415527 11 0.415527C4.93832 0.415527 0 5.35385 0 11.4044C0 22.7826 10.4995 26.4974 10.5996 26.5308ZM11 5.43171C14.27 5.43171 16.9282 8.08995 16.9282 11.3599C16.9282 14.6188 14.27 17.2881 11 17.2881C7.73003 17.2881 5.07179 14.6188 5.07179 11.3599C5.07179 8.08995 7.73003 5.43171 11 5.43171Z" fill="white"/>
<path d="M17.4732 24.6848C16.906 24.3178 16.1385 24.4846 15.7715 25.0518C15.4045 25.6191 15.5713 26.3865 16.1385 26.7536C16.5946 27.0427 16.7392 27.2874 16.7392 27.3653C16.7392 27.8102 14.7594 29.1004 10.9889 29.1004C7.21843 29.1004 5.24977 27.8102 5.24977 27.3653C5.24977 27.2874 5.39436 27.0427 5.85038 26.7536C6.41762 26.3865 6.58445 25.6302 6.21741 25.0518C5.85038 24.4846 5.09406 24.3178 4.5157 24.6848C3.08091 25.608 2.78061 26.6535 2.78061 27.3653C2.79173 30.1125 6.91812 31.5584 11 31.5584C15.0819 31.5584 19.2083 30.1125 19.2083 27.3653C19.2083 26.6535 18.908 25.5968 17.4732 24.6848Z" fill="white"/>
</svg>
